<?xml version="1.0" encoding="UTF-8" standalone="no"?>
<svg width="20px" height="20px" viewBox="0 0 20 20" version="1.1" xmlns="http://www.w3.org/2000/svg" xmlns:xlink="http://www.w3.org/1999/xlink">
    <!-- Generator: Sketch 41.1 (35376) - http://www.bohemiancoding.com/sketch -->
    <title>Page 1</title>
    <desc>Created with Sketch.</desc>
    <defs></defs>
    <g id="Page-1" stroke="none" stroke-width="1" fill="none" fill-rule="evenodd">
        <path d="M2.94,7.89 C2.94,5.16266667 5.16066667,2.94133333 7.88933333,2.94133333 C10.6186667,2.94133333 12.8393333,5.16133333 12.8393333,7.89 C12.8393333,10.6193333 10.6186667,12.8393333 7.88933333,12.8393333 C5.16066667,12.8393333 2.94,10.6193333 2.94,7.89 L2.94,7.89 Z M19.8513333,17.4 L14.5573333,12.1046667 C15.3326667,10.884 15.78,9.438 15.78,7.88933333 C15.7806667,3.54 12.2406667,0 7.89,0 C3.53933333,0 0,3.54 0,7.89 C0,12.2406667 3.53933333,15.7806667 7.89,15.7806667 C9.36333333,15.7806667 10.7406667,15.3746667 11.9226667,14.67 L17.2526667,20 L19.8513333,17.4 Z" fill="#AAAAAA"></path>
    </g>
</svg>