<?xml version="1.0" encoding="UTF-8" standalone="no"?>
<svg width="59px" height="70px" viewBox="0 0 59 70" version="1.1" xmlns="http://www.w3.org/2000/svg" xmlns:xlink="http://www.w3.org/1999/xlink">
    <!-- Generator: Sketch 41.1 (35376) - http://www.bohemiancoding.com/sketch -->
    <title>iconmonstr-note-14</title>
    <desc>Created with Sketch.</desc>
    <defs></defs>
    <g id="トップ" stroke="none" stroke-width="1" fill="none" fill-rule="evenodd">
        <g id="Top" transform="translate(-654.000000, -529.000000)" fill="#FFFFFF">
            <g id="iconmonstr-note-14" transform="translate(654.000000, 529.000000)">
                <path d="M5.83333333,64.1666667 L5.83333333,5.83333333 L52.5,5.83333333 L52.5,39.5004167 C52.5,51.4791667 35,46.6666667 35,46.6666667 C35,46.6666667 39.4275,64.1666667 27.3058333,64.1666667 L5.83333333,64.1666667 Z M58.3333333,41.9591667 L58.3333333,0 L0,0 L0,70 L29.7179167,70 C38.9433333,70 58.3333333,48.9329167 58.3333333,41.9591667 Z M43.75,37.9166667 L14.5833333,37.9166667 L14.5833333,35 L43.75,35 L43.75,37.9166667 Z M43.75,26.25 L14.5833333,26.25 L14.5833333,29.1666667 L43.75,29.1666667 L43.75,26.25 Z M43.75,17.5 L14.5833333,17.5 L14.5833333,20.4166667 L43.75,20.4166667 L43.75,17.5 Z" id="Shape"></path>
            </g>
        </g>
    </g>
</svg>