<?xml version="1.0" encoding="UTF-8" standalone="no"?>
<svg width="58px" height="70px" viewBox="0 0 58 70" version="1.1" xmlns="http://www.w3.org/2000/svg" xmlns:xlink="http://www.w3.org/1999/xlink">
    <!-- Generator: Sketch 41.1 (35376) - http://www.bohemiancoding.com/sketch -->
    <title>iconmonstr-book-10</title>
    <desc>Created with Sketch.</desc>
    <defs></defs>
    <g id="トップ" stroke="none" stroke-width="1" fill="none" fill-rule="evenodd">
        <g id="Top" transform="translate(-254.000000, -530.000000)" fill="#FFFFFF">
            <g id="iconmonstr-book-10" transform="translate(254.000000, 530.000000)">
                <path d="M10.0899156,5.82010582 L57.739145,5.82010582 L57.739145,0 L8.66087176,0 C3.88007055,0 0,3.90820106 0,8.73015873 L0,61.1111111 C0,65.9330688 3.88007055,69.8412698 8.66087176,69.8412698 L57.739145,69.8412698 L57.739145,11.6402116 L10.0899156,11.6402116 C6.11746242,11.6402116 6.11746242,5.82010582 10.0899156,5.82010582 L10.0899156,5.82010582 Z M11.547829,17.4603175 L51.9652305,17.4603175 L51.9652305,64.021164 L11.547829,64.021164 L11.547829,17.4603175 Z M34.8859914,52.2587302 C34.8859914,53.9320106 33.5406694,55.2910053 31.877782,55.2910053 C30.2235555,55.2910053 28.8753464,53.9320106 28.8753464,52.2587302 C28.8753464,50.5825397 30.2235555,49.226455 31.877782,49.226455 C33.5406694,49.2293651 34.8859914,50.5854497 34.8859914,52.2587302 L34.8859914,52.2587302 Z M31.9759385,26.1904762 C27.1258503,26.1904762 23.4825103,29.4555556 23.4825103,35.8896825 L28.2402158,35.8896825 C28.2402158,33.0960317 29.3285987,30.8087302 31.877782,30.8087302 C33.3789997,30.8087302 34.9668262,31.8126984 35.1054002,33.7304233 C35.252635,35.75 34.1844608,36.7743386 32.8304779,38.0751323 C29.311277,41.4449735 29.4411901,42.9873016 29.4411901,46.802381 L34.1873478,46.802381 C34.1873478,45.0417989 33.9968086,43.7613757 36.398757,41.1539683 C37.9981314,39.4137566 39.9901319,37.2486772 40.0334362,33.9457672 C40.0882884,29.1441799 36.7220962,26.1904762 31.9759385,26.1904762 L31.9759385,26.1904762 Z" id="Shape"></path>
            </g>
        </g>
    </g>
</svg>