<?xml version="1.0" encoding="UTF-8" standalone="no"?>
<svg width="80px" height="60px" viewBox="0 0 80 60" version="1.1" xmlns="http://www.w3.org/2000/svg" xmlns:xlink="http://www.w3.org/1999/xlink">
    <!-- Generator: Sketch 41.1 (35376) - http://www.bohemiancoding.com/sketch -->
    <title>iconmonstr-book-17</title>
    <desc>Created with Sketch.</desc>
    <defs></defs>
    <g id="トップ" stroke="none" stroke-width="1" fill="none" fill-rule="evenodd">
        <g id="Top" transform="translate(-243.000000, -219.000000)" fill="#FFFFFF">
            <g id="iconmonstr-book-17" transform="translate(243.000000, 219.000000)">
                <path d="M76.1646464,6.63969291 L76.1646464,52.7291213 L72.8531401,53.1175433 L72.8531401,0 C59.9548228,0.395061728 48.0002848,2.529723 39.7314534,7.68876439 C31.4659335,2.529723 19.5246415,0.395061728 6.62301273,0 L6.62301273,53.1175433 L3.31150637,52.7291213 L3.31150637,6.63969291 L0,6.63969291 L0,56.4373898 L29.9923132,56.4373898 C34.8900311,56.4373898 35.4264951,59.7572362 39.7314534,59.7572362 C44.0496577,59.7572362 44.5695642,56.4373898 49.4739051,56.4373898 L79.4761528,56.4373898 L79.4761528,6.63969291 L76.1646464,6.63969291 Z M36.42657,51.9389978 C29.9823786,49.3760764 22.7268682,47.7261127 13.2460255,47.0123457 L13.2460255,7.00487602 C21.0346884,7.65888578 29.7903113,9.24577238 36.42657,13.3856209 L36.42657,51.9389978 Z M66.2301273,47.0123457 C56.7492846,47.7261127 49.4937742,49.3760764 43.0495828,51.9389978 L43.0495828,13.3856209 C49.6858415,9.24577238 58.4414644,7.65888578 66.2301273,7.00487602 L66.2301273,47.0123457 L66.2301273,47.0123457 Z" id="Shape"></path>
            </g>
        </g>
    </g>
</svg>