<?xml version="1.0" encoding="UTF-8" standalone="no"?>
<svg width="74px" height="68px" viewBox="0 0 74 68" version="1.1" xmlns="http://www.w3.org/2000/svg" xmlns:xlink="http://www.w3.org/1999/xlink">
    <!-- Generator: Sketch 41.1 (35376) - http://www.bohemiancoding.com/sketch -->
    <title>iconmonstr-help-6</title>
    <desc>Created with Sketch.</desc>
    <defs></defs>
    <g id="トップ" stroke="none" stroke-width="1" fill="none" fill-rule="evenodd">
        <g id="Top" transform="translate(-646.000000, -212.000000)" fill="#FFFFFF">
            <g id="iconmonstr-help-6" transform="translate(646.000000, 212.000000)">
                <path d="M36.955045,6.15917416 C53.9358881,6.15917416 67.7509158,17.2210509 67.7509158,30.8174279 C67.7509158,45.9597576 51.9064402,55.3340206 37.2322078,55.3340206 C31.2670476,55.3340206 26.8139647,54.1114246 23.7005022,53.3507666 C20.6209151,55.2385534 18.7885608,56.5442984 10.5445062,58.9556151 C12.1920852,54.727342 12.7710476,50.4929098 12.3984176,45.8211762 C9.81772361,42.7415891 6.16225375,38.4301672 6.16225375,30.8174279 C6.15917416,17.2210509 19.9742018,6.15917416 36.955045,6.15917416 L36.955045,6.15917416 Z M36.955045,5.47044557e-15 C17.436622,5.47044557e-15 0,13.014335 0,30.8174279 C0,37.1305814 2.27273526,43.3297902 6.30391475,48.1401052 C6.47329204,53.7757496 3.15349717,61.8627453 0.166297702,67.7509158 C8.17938328,66.3035098 19.5707759,63.1068984 24.7352434,59.9410829 C29.1020979,61.0035405 33.2810976,61.4901152 37.2352874,61.4901152 C59.0510823,61.4901152 73.9131695,46.5941525 73.9131695,30.8143483 C73.9100899,12.9188678 56.353364,0 36.955045,0 L36.955045,5.47044557e-15 Z M40.1085421,43.0372294 C40.1085421,44.7802757 38.6980912,46.1938062 36.955045,46.1938062 C35.2150783,46.1938062 33.8015478,44.7802757 33.8015478,43.0372294 C33.8015478,41.2972627 35.2150783,39.8837323 36.955045,39.8837323 C38.6980912,39.8837323 40.1085421,41.2972627 40.1085421,43.0372294 L40.1085421,43.0372294 Z M43.622351,17.8092521 C42.0887166,16.2540606 39.8005834,15.3979354 37.186014,15.3979354 C31.6858715,15.3979354 28.1289484,19.3120906 28.1289484,25.3665588 L33.2010283,25.3665588 C33.2010283,21.6187013 35.2951475,20.2883197 37.0843876,20.2883197 C38.6826933,20.2883197 40.3795458,21.3507772 40.5242864,23.3802251 C40.6844249,25.5174585 39.5418981,26.6014732 38.0975718,27.9780486 C34.5344895,31.3655944 34.4667386,33.0070143 34.4852161,36.7302351 L39.5449777,36.7302351 C39.5141818,35.0549397 39.6219674,33.6937622 41.9039414,31.2331722 C43.6131122,29.3915791 45.7380273,27.1003663 45.7811415,23.605035 C45.8057782,21.270708 45.0635977,19.2658968 43.622351,17.8092521 L43.622351,17.8092521 Z" id="Shape"></path>
            </g>
        </g>
    </g>
</svg>