<?xml version="1.0" encoding="UTF-8" standalone="no"?>
<svg width="177px" height="340px" viewBox="0 0 177 340" version="1.1" xmlns="http://www.w3.org/2000/svg" xmlns:xlink="http://www.w3.org/1999/xlink">
    <!-- Generator: Sketch 41.1 (35376) - http://www.bohemiancoding.com/sketch -->
    <title>たいちょう</title>
    <desc>Created with Sketch.</desc>
    <defs>
        <polygon id="path-1" points="67.7191168 0.175904165 0.0389368911 0.175904165 0.0389368911 48.3089665 67.7191168 48.3089665 67.7191168 0.175904165"></polygon>
    </defs>
    <g id="トップ" stroke="none" stroke-width="1" fill="none" fill-rule="evenodd">
        <g id="Top" transform="translate(-982.000000, -820.000000)">
            <g id="たいちょう" transform="translate(982.000000, 820.000000)">
                <path d="M176.152264,39.150002 C176.152264,39.150002 165.12077,61.9777352 146.552964,66.8023095 L146.552964,45.9973102 L176.152264,39.150002 Z" id="Fill-1" fill="#865A15"></path>
                <path d="M18.2902207,39.150002 C18.2902207,39.150002 29.3207925,61.9777352 47.889521,66.8023095 L47.889521,45.9973102 L18.2902207,39.150002 Z" id="Fill-3" fill="#865A15"></path>
                <path d="M146.553241,117.724611 C146.553241,127.238542 138.748565,135.02317 129.209209,135.02317 L65.2326305,135.02317 C55.694197,135.02317 47.889521,127.238542 47.889521,117.724611 L47.889521,53.9114517 C47.889521,44.39752 55.694197,36.6128922 65.2326305,36.6128922 L129.209209,36.6128922 C138.748565,36.6128922 146.553241,44.39752 146.553241,53.9114517 L146.553241,117.724611 Z" id="Fill-5" fill="#FCE2C3"></path>
                <path d="M143.072446,117.724611 C143.072446,125.349186 136.853973,131.551684 129.209762,131.551684 L65.2322617,131.551684 C57.5889727,131.551684 51.3695784,125.349186 51.3695784,117.724611 L51.3695784,53.9114517 C51.3695784,46.2868766 57.5889727,40.0843781 65.2322617,40.0843781 L129.209762,40.0843781 C136.853973,40.0843781 143.072446,46.2868766 143.072446,53.9114517 L143.072446,117.724611 Z M129.209762,36.6128922 L65.2322617,36.6128922 C55.6938281,36.6128922 47.8891522,44.39752 47.8891522,53.9114517 L47.8891522,117.724611 C47.8891522,127.238542 55.6938281,135.02317 65.2322617,135.02317 L86.8166218,135.02317 C95.904094,135.02317 97.221012,145.400834 97.221012,145.400834 C97.221012,145.400834 98.5388522,135.02317 107.625402,135.02317 L129.209762,135.02317 C138.749118,135.02317 146.552872,127.238542 146.552872,117.724611 L146.552872,53.9114517 C146.552872,44.39752 138.749118,36.6128922 129.209762,36.6128922 L129.209762,36.6128922 Z" id="Fill-7" fill="#173134"></path>
                <path d="M97.2212887,48.4221072 L63.3807376,36.6131682 L18.2901285,39.150094 C26.1215485,56.0356442 97.2212887,71.0566734 97.2212887,71.0566734 C97.2212887,71.0566734 168.321029,56.0356442 176.152449,39.150094 L131.060917,36.6131682 L97.2212887,48.4221072 Z" id="Fill-9" fill="#A97322"></path>
                <g id="Group-13" transform="translate(63.341801, 0.113141)">
                    <mask id="mask-2" fill="white">
                        <use xlink:href="#path-1"></use>
                    </mask>
                    <g id="Clip-12"></g>
                    <polygon id="Fill-11" fill="#A97322" mask="url(#mask-2)" points="33.8794879 5.38267306 47.0800234 0.175444244 63.4271444 4.34141127 67.7191168 36.5000276 33.8794879 48.3089665 0.0389368911 36.5000276 4.33183143 4.34141127 20.6780303 0.175444244"></polygon>
                </g>
                <polygon id="Fill-14" fill="#173134" points="97.2212887 32.1994876 65.4501802 21.1117052 63.3807376 36.6128922 97.2212887 48.4218312 131.060917 36.6128922 128.992397 21.1117052"></polygon>
                <path d="M84.8587668,81.3113544 C84.8587668,84.0294892 82.6500703,86.2315924 79.9258575,86.2315924 C77.2007225,86.2315924 74.992026,84.0294892 74.992026,81.3113544 C74.992026,78.5941395 77.2007225,76.3911165 79.9258575,76.3911165 C82.6500703,76.3911165 84.8587668,78.5941395 84.8587668,81.3113544" id="Fill-16" fill="#050001"></path>
                <path d="M119.449814,81.3113544 C119.449814,84.0294892 117.241117,86.2315924 114.516904,86.2315924 C111.791769,86.2315924 109.583995,84.0294892 109.583995,81.3113544 C109.583995,78.5941395 111.791769,76.3911165 114.516904,76.3911165 C117.241117,76.3911165 119.449814,78.5941395 119.449814,81.3113544" id="Fill-18" fill="#050001"></path>
                <path d="M97.2212887,110.594083 C96.7408165,110.594083 96.3516432,110.205909 96.3516432,109.726671 L96.3516432,99.8852756 C96.3516432,99.4060376 96.7408165,99.0178641 97.2212887,99.0178641 C97.7017608,99.0178641 98.0909341,99.4060376 98.0909341,99.8852756 L98.0909341,109.726671 C98.0909341,110.205909 97.7017608,110.594083 97.2212887,110.594083" id="Fill-20" fill="#173134"></path>
                <path d="M97.2212887,110.594083 C96.7408165,110.594083 96.3516432,110.205909 96.3516432,109.726671 L96.3516432,99.8852756 C96.3516432,99.4060376 96.7408165,99.0178641 97.2212887,99.0178641 C97.7017608,99.0178641 98.0909341,99.4060376 98.0909341,99.8852756 L98.0909341,109.726671 C98.0909341,110.205909 97.7017608,110.594083 97.2212887,110.594083" id="Fill-22" fill="#173134"></path>
                <path d="M100.181495,110.594083 C99.7010232,110.594083 99.3109277,110.205909 99.3109277,109.726671 L99.3109277,99.8852756 C99.3109277,99.4060376 99.7010232,99.0178641 100.181495,99.0178641 C100.661968,99.0178641 101.051141,99.4060376 101.051141,99.8852756 L101.051141,109.726671 C101.051141,110.205909 100.661968,110.594083 100.181495,110.594083" id="Fill-24" fill="#173134"></path>
                <path d="M103.140872,110.594083 C102.6604,110.594083 102.271227,110.205909 102.271227,109.726671 L102.271227,99.8852756 C102.271227,99.4060376 102.6604,99.0178641 103.140872,99.0178641 C103.621344,99.0178641 104.010518,99.4060376 104.010518,99.8852756 L104.010518,109.726671 C104.010518,110.205909 103.621344,110.594083 103.140872,110.594083" id="Fill-26" fill="#173134"></path>
                <path d="M106.101171,111.57859 C105.620699,111.57859 105.231526,111.190417 105.231526,110.710259 L105.231526,100.868863 C105.231526,100.389625 105.620699,100.001452 106.101171,100.001452 C106.581643,100.001452 106.970816,100.389625 106.970816,100.868863 L106.970816,110.710259 C106.970816,111.190417 106.581643,111.57859 106.101171,111.57859" id="Fill-28" fill="#173134"></path>
                <path d="M109.060548,112.562638 C108.580075,112.562638 108.190902,112.174464 108.190902,111.694307 L108.190902,101.852911 C108.190902,101.373673 108.580075,100.985499 109.060548,100.985499 C109.54102,100.985499 109.931115,101.373673 109.931115,101.852911 L109.931115,111.694307 C109.931115,112.174464 109.54102,112.562638 109.060548,112.562638" id="Fill-30" fill="#173134"></path>
                <path d="M85.3815685,112.562638 C84.9010963,112.562638 84.5110009,112.174464 84.5110009,111.694307 L84.5110009,101.852911 C84.5110009,101.373673 84.9010963,100.985499 85.3815685,100.985499 C85.8620407,100.985499 86.251214,101.373673 86.251214,101.852911 L86.251214,111.694307 C86.251214,112.174464 85.8620407,112.562638 85.3815685,112.562638" id="Fill-32" fill="#173134"></path>
                <path d="M88.3414063,111.57859 C87.8609341,111.57859 87.4708387,111.190417 87.4708387,110.710259 L87.4708387,100.868863 C87.4708387,100.389625 87.8609341,100.001452 88.3414063,100.001452 C88.8218785,100.001452 89.2110518,100.389625 89.2110518,100.868863 L89.2110518,110.710259 C89.2110518,111.190417 88.8218785,111.57859 88.3414063,111.57859" id="Fill-34" fill="#173134"></path>
                <path d="M91.301613,110.594083 C90.8211408,110.594083 90.4310454,110.205909 90.4310454,109.726671 L90.4310454,99.8852756 C90.4310454,99.4060376 90.8211408,99.0178641 91.301613,99.0178641 C91.7820852,99.0178641 92.1712585,99.4060376 92.1712585,99.8852756 L92.1712585,109.726671 C92.1712585,110.205909 91.7820852,110.594083 91.301613,110.594083" id="Fill-36" fill="#173134"></path>
                <path d="M94.2609897,110.594083 C93.7805175,110.594083 93.3913443,110.205909 93.3913443,109.726671 L93.3913443,99.8852756 C93.3913443,99.4060376 93.7805175,99.0178641 94.2609897,99.0178641 C94.7414619,99.0178641 95.1306352,99.4060376 95.1306352,99.8852756 L95.1306352,109.726671 C95.1306352,110.205909 94.7414619,110.594083 94.2609897,110.594083" id="Fill-38" fill="#173134"></path>
                <path d="M112.020754,113.546778 C111.540282,113.546778 111.151109,113.158604 111.151109,112.678446 L111.151109,102.83797 C111.151109,102.357812 111.540282,101.969639 112.020754,101.969639 C112.501227,101.969639 112.8904,102.357812 112.8904,102.83797 L112.8904,112.678446 C112.8904,113.158604 112.501227,113.546778 112.020754,113.546778" id="Fill-40" fill="#173134"></path>
                <path d="M138.659571,128.988727 C138.179099,128.988727 137.789926,128.600553 137.789926,128.121315 L137.789926,102.837602 C137.789926,102.358364 138.179099,101.969271 138.659571,101.969271 C139.140044,101.969271 139.530139,102.358364 139.530139,102.837602 L139.530139,128.121315 C139.530139,128.600553 139.140044,128.988727 138.659571,128.988727" id="Fill-42" fill="#173134"></path>
                <path d="M141.619778,127.02054 C141.139306,127.02054 140.750133,126.632366 140.750133,126.153128 L140.750133,100.869415 C140.750133,100.390177 141.139306,100.001084 141.619778,100.001084 C142.10025,100.001084 142.489424,100.390177 142.489424,100.869415 L142.489424,126.153128 C142.489424,126.632366 142.10025,127.02054 141.619778,127.02054" id="Fill-44" fill="#173134"></path>
                <path d="M135.700195,131.592801 C135.219722,131.592801 134.830549,131.204628 134.830549,130.72447 L134.830549,104.806065 C134.830549,104.325908 135.219722,103.937734 135.700195,103.937734 C136.180667,103.937734 136.56984,104.325908 136.56984,104.806065 L136.56984,130.72447 C136.56984,131.204628 136.180667,131.592801 135.700195,131.592801" id="Fill-46" fill="#173134"></path>
                <path d="M132.739896,133.575798 C132.259424,133.575798 131.87025,133.187624 131.87025,132.708386 L131.87025,106.774345 C131.87025,106.295107 132.259424,105.906013 132.739896,105.906013 C133.220368,105.906013 133.609541,106.295107 133.609541,106.774345 L133.609541,132.708386 C133.609541,133.187624 133.220368,133.575798 132.739896,133.575798" id="Fill-48" fill="#173134"></path>
                <path d="M129.780519,133.575798 C129.300047,133.575798 128.909951,133.187624 128.909951,132.708386 L128.909951,108.741888 C128.909951,108.26265 129.300047,107.874476 129.780519,107.874476 C130.260991,107.874476 130.650164,108.26265 130.650164,108.741888 L130.650164,132.708386 C130.650164,133.187624 130.260991,133.575798 129.780519,133.575798" id="Fill-50" fill="#173134"></path>
                <path d="M126.820312,133.575798 C126.33984,133.575798 125.950667,133.187624 125.950667,132.708386 L125.950667,110.710351 C125.950667,110.231113 126.33984,109.842939 126.820312,109.842939 C127.300785,109.842939 127.689958,110.231113 127.689958,110.710351 L127.689958,132.708386 C127.689958,133.187624 127.300785,133.575798 126.820312,133.575798" id="Fill-52" fill="#173134"></path>
                <path d="M123.860013,133.575798 C123.379541,133.575798 122.990368,133.187624 122.990368,132.708386 L122.990368,112.678814 C122.990368,112.199576 123.379541,111.810483 123.860013,111.810483 C124.340486,111.810483 124.730581,112.199576 124.730581,112.678814 L124.730581,132.708386 C124.730581,133.187624 124.340486,133.575798 123.860013,133.575798" id="Fill-54" fill="#173134"></path>
                <path d="M55.7825448,128.988727 C55.3020726,128.988727 54.9119772,128.600553 54.9119772,128.121315 L54.9119772,102.837602 C54.9119772,102.358364 55.3020726,101.969271 55.7825448,101.969271 C56.263017,101.969271 56.6521903,102.358364 56.6521903,102.837602 L56.6521903,128.121315 C56.6521903,128.600553 56.263017,128.988727 55.7825448,128.988727" id="Fill-56" fill="#173134"></path>
                <path d="M52.822707,127.02054 C52.3422348,127.02054 51.9521394,126.632366 51.9521394,126.153128 L51.9521394,100.869415 C51.9521394,100.390177 52.3422348,100.001084 52.822707,100.001084 C53.3031792,100.001084 53.6923525,100.390177 53.6923525,100.869415 L53.6923525,126.153128 C53.6923525,126.632366 53.3031792,127.02054 52.822707,127.02054" id="Fill-58" fill="#173134"></path>
                <path d="M58.7423827,131.592801 C58.2619105,131.592801 57.8727372,131.204628 57.8727372,130.72447 L57.8727372,104.806065 C57.8727372,104.325908 58.2619105,103.937734 58.7423827,103.937734 C59.2228548,103.937734 59.6120281,104.325908 59.6120281,104.806065 L59.6120281,130.72447 C59.6120281,131.204628 59.2228548,131.592801 58.7423827,131.592801" id="Fill-60" fill="#173134"></path>
                <path d="M61.7021282,133.575798 C61.2216561,133.575798 60.8324828,133.187624 60.8324828,132.708386 L60.8324828,106.774345 C60.8324828,106.295107 61.2216561,105.906013 61.7021282,105.906013 C62.1826004,105.906013 62.5726959,106.295107 62.5726959,106.774345 L62.5726959,132.708386 C62.5726959,133.187624 62.1826004,133.575798 61.7021282,133.575798" id="Fill-62" fill="#173134"></path>
                <path d="M64.6619661,133.575798 C64.1814939,133.575798 63.7923206,133.187624 63.7923206,132.708386 L63.7923206,108.741888 C63.7923206,108.26265 64.1814939,107.874476 64.6619661,107.874476 C65.1424383,107.874476 65.5325337,108.26265 65.5325337,108.741888 L65.5325337,132.708386 C65.5325337,133.187624 65.1424383,133.575798 64.6619661,133.575798" id="Fill-64" fill="#173134"></path>
                <path d="M67.622265,133.575798 C67.1417928,133.575798 66.7516973,133.187624 66.7516973,132.708386 L66.7516973,110.710351 C66.7516973,110.231113 67.1417928,109.842939 67.622265,109.842939 C68.1027372,109.842939 68.4919104,110.231113 68.4919104,110.710351 L68.4919104,132.708386 C68.4919104,133.187624 68.1027372,133.575798 67.622265,133.575798" id="Fill-66" fill="#173134"></path>
                <path d="M70.5820106,133.575798 C70.1015384,133.575798 69.7114429,133.187624 69.7114429,132.708386 L69.7114429,112.678814 C69.7114429,112.199576 70.1015384,111.810483 70.5820106,111.810483 C71.0624828,111.810483 71.451656,112.199576 71.451656,112.678814 L71.451656,132.708386 C71.451656,133.187624 71.0624828,133.575798 70.5820106,133.575798" id="Fill-68" fill="#173134"></path>
                <path d="M82.4217307,113.546778 C81.9412585,113.546778 81.551163,113.158604 81.551163,112.678446 L81.551163,102.83797 C81.551163,102.357812 81.9412585,101.969639 82.4217307,101.969639 C82.9022029,101.969639 83.2913762,102.357812 83.2913762,102.83797 L83.2913762,112.678446 C83.2913762,113.158604 82.9022029,113.546778 82.4217307,113.546778" id="Fill-70" fill="#173134"></path>
                <path d="M25.6882014,159.608446 C25.6872792,160.967974 24.5824698,162.069025 23.2203634,162.068105 C21.858257,162.068105 20.7543698,160.966134 20.7543698,159.607527 C20.755292,158.247999 21.8601014,157.146948 23.2222078,157.147868 C24.5843142,157.147868 25.6882014,158.249839 25.6882014,159.608446 M77.4860548,159.627763 C77.486977,156.909628 75.2792026,154.705686 72.5549899,154.704766 L23.22313,154.687289 C20.4989172,154.686369 18.2892985,156.888472 18.2883763,159.606607 C18.2874541,162.323822 20.4952284,164.527765 23.2194412,164.528684 L72.551301,164.546161 C75.276436,164.547081 77.4860548,162.344978 77.4860548,159.627763" id="Fill-72" fill="#FCE2C3"></path>
                <path d="M23.2069913,107.942361 C24.5690977,107.942361 25.6739071,109.043412 25.6739071,110.40202 C25.6748293,111.760627 24.5709421,112.862599 23.2079135,112.863518 C21.8458071,112.863518 20.7409978,111.762467 20.7409978,110.40294 C20.7400756,109.044332 21.8439627,107.942361 23.2069913,107.942361 M23.2189801,157.1475 C24.5820087,157.1475 25.6858958,158.248551 25.6858958,159.607159 C25.686818,160.965766 24.5829309,162.067738 23.2208245,162.067738 C21.8577959,162.068657 20.7529865,160.967606 20.7529865,159.608079 C20.7529865,158.249471 21.8568737,157.148419 23.2189801,157.1475 M23.2060691,105.482702 C20.4818563,105.482702 18.2731598,107.686644 18.274082,110.403859 L18.286993,159.608998 C18.2879152,162.327133 20.4966117,164.529236 23.2208245,164.528316 C25.9459595,164.527397 28.1537338,162.324374 28.1528116,159.607159 L28.1408229,110.4011 C28.1399006,107.683885 25.9312041,105.481782 23.2060691,105.482702" id="Fill-74" fill="#FCE2C3"></path>
                <path d="M58.2330452,327.522857 C56.8709389,327.522857 55.7670517,326.421806 55.7670517,325.062278 C55.7670517,323.704591 56.8709389,322.601699 58.2330452,322.601699 C59.5960738,322.601699 60.699961,323.704591 60.699961,325.062278 C60.699961,326.421806 59.5960738,327.522857 58.2330452,327.522857 M58.2330452,320.14204 C55.5088325,320.14204 53.3001359,322.345063 53.3001359,325.062278 L53.3001359,329.983436 L43.4333951,339.823912 L63.1668768,339.823912 L63.1668768,329.983436 L63.1668768,325.062278 C63.1668768,322.345063 60.9581802,320.14204 58.2330452,320.14204" id="Fill-76" fill="#173134"></path>
                <path d="M55.766775,325.062462 C55.766775,323.703855 56.8706622,322.601883 58.2327686,322.601883 C59.5957972,322.601883 60.6996843,323.703855 60.6996843,325.062462 C60.6996843,326.42199 59.5957972,327.523041 58.2327686,327.523041 C56.8706622,327.523041 55.766775,326.42199 55.766775,325.062462 M55.766775,275.857323 C55.766775,274.498716 56.8706622,273.396744 58.2327686,273.396744 C59.5957972,273.396744 60.6996843,274.498716 60.6996843,275.857323 C60.6996843,277.215931 59.5957972,278.317902 58.2327686,278.317902 C56.8706622,278.317902 55.766775,277.215931 55.766775,275.857323 M63.1666001,325.062462 L63.1666001,275.857323 C63.1666001,273.140108 60.9579036,270.936166 58.2327686,270.936166 C55.5085558,270.936166 53.2998593,273.140108 53.2998593,275.857323 L53.2998593,325.062462 C53.2998593,327.779677 55.5085558,329.98362 58.2327686,329.98362 C60.9579036,329.98362 63.1666001,327.779677 63.1666001,325.062462" id="Fill-78" fill="#334149"></path>
                <path d="M55.9554595,274.914025 C56.476509,273.65844 57.91977,273.062382 59.1785887,273.583013 C60.4364852,274.101804 61.0340782,275.542277 60.5130287,276.796942 C59.9919792,278.052528 58.5496405,278.648586 57.2908218,278.127955 C56.0320031,277.609163 55.43441,276.16961 55.9554595,274.914025 M62.7918134,277.737941 L81.670405,232.278402 C82.7134262,229.768151 81.5182401,226.889964 79.0006027,225.849622 C76.4838875,224.8102 73.5982877,226.002316 72.5552665,228.513486 L53.6766749,273.973026 C52.6336537,276.483276 53.829762,279.361464 56.3464772,280.401806 C58.8641146,281.442147 61.7497144,280.249112 62.7918134,277.737941" id="Fill-80" fill="#334149"></path>
                <path d="M133.742247,325.062462 C133.742247,323.703855 134.846135,322.601883 136.209163,322.601883 C137.57127,322.601883 138.676079,323.703855 138.676079,325.062462 C138.676079,326.42199 137.57127,327.523041 136.209163,327.523041 C134.846135,327.523041 133.742247,326.42199 133.742247,325.062462 M131.275332,325.062462 L131.275332,329.98362 L131.275332,339.824096 L151.008813,339.824096 L141.142073,329.98362 L141.142073,325.062462 C141.142073,322.345247 138.933376,320.141304 136.209163,320.141304 C133.48495,320.141304 131.275332,322.345247 131.275332,325.062462" id="Fill-82" fill="#173134"></path>
                <path d="M136.208979,327.522857 C134.84595,327.522857 133.742063,326.421806 133.742063,325.062278 C133.742063,323.704591 134.84595,322.601699 136.208979,322.601699 C137.572007,322.601699 138.675895,323.704591 138.675895,325.062278 C138.675895,326.421806 137.572007,327.522857 136.208979,327.522857 M136.208979,278.317718 C134.84595,278.317718 133.742063,277.216667 133.742063,275.857139 C133.742063,274.498532 134.84595,273.39656 136.208979,273.39656 C137.572007,273.39656 138.675895,274.498532 138.675895,275.857139 C138.675895,277.216667 137.572007,278.317718 136.208979,278.317718 M136.208979,329.983436 C138.933192,329.983436 141.14281,327.779493 141.14281,325.062278 L141.14281,275.857139 C141.14281,273.139924 138.933192,270.935982 136.208979,270.935982 C133.484766,270.935982 131.276069,273.139924 131.276069,275.857139 L131.276069,325.062278 C131.276069,327.779493 133.484766,329.983436 136.208979,329.983436" id="Fill-84" fill="#334149"></path>
                <path d="M137.15194,278.128047 C135.893121,278.647758 134.44986,278.05262 133.928811,276.797034 C133.407761,275.541449 134.005354,274.101896 135.264173,273.583105 C136.52207,273.062474 137.965331,273.658532 138.48638,274.914117 C139.008352,276.169702 138.409836,277.609255 137.15194,278.128047 M138.095362,280.401898 C140.613,279.361556 141.808186,276.483368 140.766087,273.972198 L121.886573,228.513578 C120.844474,226.002408 117.958874,224.810292 115.441237,225.849714 C112.924522,226.890056 111.729336,229.768243 112.771435,232.278493 L131.650026,277.738033 C132.693047,280.249204 135.578647,281.442239 138.095362,280.401898" id="Fill-86" fill="#334149"></path>
                <path d="M72.5552665,228.513118 L72.5552665,215.64728 L121.887126,215.64728 L121.887126,228.513118 C121.887126,235.307075 110.843644,240.814173 97.2216575,240.814173 C83.5987492,240.814173 72.5552665,235.307075 72.5552665,228.513118" id="Fill-88" fill="#334149"></path>
                <path d="M155.054002,192.673384 C156.017713,191.712148 157.579017,191.712148 158.542728,192.673384 C159.505517,193.633699 159.505517,195.190993 158.542728,196.152228 C157.579017,197.112544 156.017713,197.112544 155.054002,196.152228 C154.091213,195.190993 154.091213,193.633699 155.054002,192.673384 M118.42745,156.139996 C116.500028,158.061547 116.500028,161.177054 118.42745,163.098605 L153.3101,197.891651 C155.2366,199.814122 158.36013,199.814122 160.28663,197.891651 C162.214052,195.970099 162.214052,192.854593 160.28663,190.933041 L125.40398,156.139996 C123.47748,154.218445 120.35395,154.218445 118.42745,156.139996" id="Fill-90" fill="#FCE2C3"></path>
                <path d="M156.832671,246.076408 C155.469643,246.076408 154.365755,244.975357 154.365755,243.615829 C154.365755,242.258142 155.469643,241.15525 156.832671,241.15525 C158.1957,241.15525 159.299587,242.258142 159.299587,243.615829 C159.299587,244.975357 158.1957,246.076408 156.832671,246.076408 M156.832671,196.871269 C155.469643,196.871269 154.365755,195.770218 154.365755,194.41069 C154.365755,193.052083 155.469643,191.950111 156.832671,191.950111 C158.1957,191.950111 159.299587,193.052083 159.299587,194.41069 C159.299587,195.770218 158.1957,196.871269 156.832671,196.871269 M156.832671,248.536987 C159.556884,248.536987 161.766503,246.333964 161.766503,243.615829 L161.766503,194.41069 C161.766503,191.693475 159.556884,189.490452 156.832671,189.490452 C154.108458,189.490452 151.89884,191.693475 151.89884,194.41069 L151.89884,243.615829 C151.89884,246.333964 154.108458,248.536987 156.832671,248.536987" id="Fill-92" fill="#FCE2C3"></path>
                <polygon id="Fill-94" fill="#A97322" points="72.5552665 228.513118 72.5552665 154.70495 89.8209102 154.70495 89.8209102 225.487756"></polygon>
                <polygon id="Fill-96" fill="#A97322" points="104.62056 225.487756 104.62056 154.70495 121.887126 154.70495 121.887126 228.513118"></polygon>
                <polygon id="Fill-98" fill="#FCE2C3" points="89.8206336 215.647188 104.620284 215.647188 104.620284 154.704858 89.8206336 154.704858"></polygon>
                <polygon id="Fill-100" fill="#A97322" points="129.287044 162.08595 136.685947 154.705134 121.887219 154.705134 121.887219 162.08595 119.420303 162.08595 119.420303 169.466767 116.954309 169.466767 116.954309 184.228401 131.753959 169.466767 126.820128 169.466767 134.220875 162.08595"></polygon>
                <polygon id="Fill-101" fill="#A97322" points="65.1555337 162.08595 57.7557086 154.705134 72.5553587 154.705134 72.5553587 162.08595 75.0222745 162.08595 75.0222745 169.466767 77.4882681 169.466767 77.4882681 184.228401 62.6886179 169.466767 67.6215272 169.466767 60.2217021 162.08595"></polygon>
                <polygon id="Fill-102" fill="#865A15" points="104.62056 154.704766 114.487301 149.784528 109.554392 159.619485 114.487301 163.67967 104.62056 225.487572"></polygon>
                <polygon id="Fill-103" fill="#865A15" points="89.8210947 154.704766 79.955276 149.784528 84.8881854 159.619485 79.955276 163.67967 89.8210947 225.487572"></polygon>
                <path d="M34.5320252,102.508667 C36.5756459,102.508667 38.2319378,100.856629 38.2319378,98.8182582 C38.2319378,96.7798871 36.5756459,95.1278498 34.5320252,95.1278498 L12.8286998,89.4294251 L12.8286998,108.207091 L34.5320252,102.508667 Z" id="Fill-104" fill="#173134"></path>
                <path d="M19.7325595,98.8179823 C19.7325595,104.253332 15.3151664,108.659378 9.86581864,108.659378 C4.41739309,108.659378 0,104.253332 0,98.8179823 C0,93.3826325 4.41739309,88.9765866 9.86581864,88.9765866 C15.3151664,88.9765866 19.7325595,93.3826325 19.7325595,98.8179823" id="Fill-105" fill="#334149"></path>
                <path d="M17.2658282,98.8179823 C17.2658282,102.894725 13.9532445,106.198799 9.86600308,106.198799 C5.77876171,106.198799 2.466178,102.894725 2.466178,98.8179823 C2.466178,94.74124 5.77876171,91.4371655 9.86600308,91.4371655 C13.9532445,91.4371655 17.2658282,94.74124 17.2658282,98.8179823" id="Fill-106" fill="#FEFEFE"></path>
            </g>
        </g>
    </g>
</svg>