<?xml version="1.0" encoding="UTF-8" standalone="no"?>
<svg width="80px" height="73px" viewBox="0 0 80 73" version="1.1" xmlns="http://www.w3.org/2000/svg" xmlns:xlink="http://www.w3.org/1999/xlink">
    <!-- Generator: Sketch 41.1 (35376) - http://www.bohemiancoding.com/sketch -->
    <title>iconmonstr-speech-bubble-26</title>
    <desc>Created with Sketch.</desc>
    <defs></defs>
    <g id="トップ" stroke="none" stroke-width="1" fill="none" fill-rule="evenodd">
        <g id="Top" transform="translate(-1043.000000, -210.000000)" fill="#FFFFFF">
            <g id="iconmonstr-speech-bubble-26" transform="translate(1043.000000, 210.000000)">
                <path d="M33.1428571,6.6352 C47.7621714,6.6352 59.6571429,16.0776 59.6571429,27.6809143 C59.6571429,37.7397714 49.6181714,48.5973714 33.3914286,48.5973714 C28.1548571,48.5973714 24.3832,47.5467429 21.0689143,46.7380571 C17.8673143,48.7034286 16.9061714,49.4325714 11.1061714,51.2885714 C12.4816,46.2574857 12.3059429,44.0568 12.2032,40.7358857 C9.42914286,37.4182857 6.62857143,33.8786286 6.62857143,27.6809143 C6.62857143,16.0776 18.5235429,6.6352 33.1428571,6.6352 L33.1428571,6.6352 Z M33.1428571,5.8873541e-15 C15.6401143,5.8873541e-15 0,11.6861714 0,27.6809143 C0,33.3516571 2.03828571,38.9196571 5.65085714,43.2414857 C5.80662857,48.3024 2.8304,55.564 0.145828571,60.8469714 C7.3312,59.5510857 17.5524571,56.6776 22.1825143,53.8372571 C26.0966857,54.7950857 29.8451429,55.2325714 33.3914286,55.2325714 C52.9556571,55.2325714 66.2857143,41.8494857 66.2857143,27.6809143 C66.2857143,11.6 50.5395429,0 33.1428571,0 L33.1428571,5.8873541e-15 Z M71.3731429,37.0338286 C70.8395429,38.6512 70.1766857,40.2188571 69.3812571,41.7268571 C74.9393143,45.9094857 76.8616,52.4187429 70.9190857,59.508 C70.8494857,61.9771429 70.7566857,62.9846857 71.3764571,65.6891429 C68.4201143,64.6716571 68.1317714,64.3899429 65.8581714,62.9946286 C58.8086857,64.7147429 51.7227429,65.3013714 45.6774857,60.1609143 C43.8148571,60.6878857 41.8826286,61.0822857 39.9106286,61.3673143 C44.9251429,67.5882286 54.1554286,70.9688 65.0229714,68.3273143 C68.0522286,70.1866286 74.7437714,72.0625143 79.4467429,72.9176 C77.6901714,69.4541714 75.7446857,64.7014857 75.8408,61.3872 C81.6573714,54.4338286 80.9547429,43.3707429 71.3731429,37.0338286 L71.3731429,37.0338286 Z M21.5428571,24.5621714 C19.5841143,24.5621714 17.9932571,26.1497143 17.9932571,28.1117714 C17.9932571,30.0738286 19.5841143,31.6613714 21.5428571,31.6613714 C23.5016,31.6613714 25.0924571,30.0738286 25.0924571,28.1117714 C25.0924571,26.1497143 23.5016,24.5621714 21.5428571,24.5621714 Z M33.1428571,24.5621714 C31.1841143,24.5621714 29.5932571,26.1497143 29.5932571,28.1117714 C29.5932571,30.0738286 31.1841143,31.6613714 33.1428571,31.6613714 C35.1016,31.6613714 36.6924571,30.0738286 36.6924571,28.1117714 C36.6924571,26.1497143 35.1016,24.5621714 33.1428571,24.5621714 Z M44.7428571,24.5621714 C42.7841143,24.5621714 41.1932571,26.1497143 41.1932571,28.1117714 C41.1932571,30.0738286 42.7841143,31.6613714 44.7428571,31.6613714 C46.7016,31.6613714 48.2924571,30.0738286 48.2924571,28.1117714 C48.2924571,26.1497143 46.7016,24.5621714 44.7428571,24.5621714 Z" id="Shape"></path>
            </g>
        </g>
    </g>
</svg>