<?xml version="1.0" encoding="UTF-8" standalone="no"?>
<svg width="25px" height="30px" viewBox="0 0 25 30" version="1.1" xmlns="http://www.w3.org/2000/svg" xmlns:xlink="http://www.w3.org/1999/xlink">
    <!-- Generator: Sketch 41.1 (35376) - http://www.bohemiancoding.com/sketch -->
    <title>iconmonstr-note-14</title>
    <desc>Created with Sketch.</desc>
    <defs></defs>
    <g id="Symbols" stroke="none" stroke-width="1" fill="none" fill-rule="evenodd" opacity="0.5">
        <g id="Header-Menu" transform="translate(-528.000000, -31.000000)" fill="#FFFFFF">
            <g id="iconmonstr-note-14">
                <g transform="translate(528.000000, 31.000000)">
                    <path d="M2.5,27.5 L2.5,2.5 L22.5,2.5 L22.5,16.92875 C22.5,22.0625 15,20 15,20 C15,20 16.8975,27.5 11.7025,27.5 L2.5,27.5 Z M25,17.9825 L25,0 L0,0 L0,30 L12.73625,30 C16.69,30 25,20.97125 25,17.9825 Z M18.75,16.25 L6.25,16.25 L6.25,15 L18.75,15 L18.75,16.25 Z M18.75,11.25 L6.25,11.25 L6.25,12.5 L18.75,12.5 L18.75,11.25 Z M18.75,7.5 L6.25,7.5 L6.25,8.75 L18.75,8.75 L18.75,7.5 Z" id="Shape"></path>
                </g>
            </g>
        </g>
    </g>
</svg>