<?xml version="1.0" encoding="UTF-8" standalone="no"?>
<svg width="26px" height="32px" viewBox="0 0 26 32" version="1.1" xmlns="http://www.w3.org/2000/svg" xmlns:xlink="http://www.w3.org/1999/xlink">
    <!-- Generator: Sketch 41.1 (35376) - http://www.bohemiancoding.com/sketch -->
    <title>iconmonstr-book-10</title>
    <desc>Created with Sketch.</desc>
    <defs></defs>
    <g id="Symbols" stroke="none" stroke-width="1" fill="none" fill-rule="evenodd" opacity="0.5">
        <g id="Header-Menu" transform="translate(-407.000000, -30.000000)" fill="#FFFFFF">
            <g id="iconmonstr-book-10">
                <g transform="translate(407.000000, 30.000000)">
                    <path d="M4.52028219,2.60740741 L25.867137,2.60740741 L25.867137,0 L3.88007055,0 C1.7382716,0 0,1.75087407 0,3.91111111 L0,27.3777778 C0,29.5380148 1.7382716,31.2888889 3.88007055,31.2888889 L25.867137,31.2888889 L25.867137,5.21481481 L4.52028219,5.21481481 C2.74062316,5.21481481 2.74062316,2.60740741 4.52028219,2.60740741 L4.52028219,2.60740741 Z M5.1734274,7.82222222 L23.2804233,7.82222222 L23.2804233,28.6814815 L5.1734274,28.6814815 L5.1734274,7.82222222 Z M15.6289242,23.4119111 C15.6289242,24.1615407 15.0262199,24.7703704 14.2812463,24.7703704 C13.5401529,24.7703704 12.9361552,24.1615407 12.9361552,23.4119111 C12.9361552,22.6609778 13.5401529,22.0534519 14.2812463,22.0534519 C15.0262199,22.0547556 15.6289242,22.6622815 15.6289242,23.4119111 L15.6289242,23.4119111 Z M14.3252205,11.7333333 C12.152381,11.7333333 10.5201646,13.1960889 10.5201646,16.0785778 L12.6516167,16.0785778 C12.6516167,14.8270222 13.1392122,13.8023111 14.2812463,13.8023111 C14.9537919,13.8023111 15.6651382,14.2520889 15.7272193,15.1112296 C15.7931805,16.016 15.3146384,16.4749037 14.7080541,17.0576593 C13.1314521,18.5673481 13.1896531,19.2583111 13.1896531,20.9674667 L15.3159318,20.9674667 C15.3159318,20.1787259 15.2305703,19.6050963 16.3066432,18.4369778 C17.0231628,17.657363 17.9155791,16.6874074 17.9349794,15.2077037 C17.9595532,13.0565926 16.4514991,11.7333333 14.3252205,11.7333333 L14.3252205,11.7333333 Z" id="Shape"></path>
                </g>
            </g>
        </g>
    </g>
</svg>