<?xml version="1.0" encoding="UTF-8" standalone="no"?>
<svg width="200px" height="64px" viewBox="0 0 200 64" version="1.1" xmlns="http://www.w3.org/2000/svg" xmlns:xlink="http://www.w3.org/1999/xlink">
    <!-- Generator: Sketch 41.1 (35376) - http://www.bohemiancoding.com/sketch -->
    <title>Chintaicho-Logo</title>
    <desc>Created with Sketch.</desc>
    <defs>
        <polygon id="path-1" points="0 38.3233533 199.390419 38.3233533 199.390419 0.464670659 0 0.464670659"></polygon>
    </defs>
    <g id="トップ" stroke="none" stroke-width="1" fill="none" fill-rule="evenodd">
        <g id="Top" transform="translate(-40.000000, -28.000000)">
            <g id="Chintaicho-Logo" transform="translate(40.000000, 28.000000)">
                <g>
                    <g id="Page-1" transform="translate(0.000000, 24.000000)">
                        <polygon id="Fill-1" fill="#FCCA51" points="15.6265868 1.19724551 2.59065868 28.2343713 8.5942515 28.2343713 21.628982 1.19724551"></polygon>
                        <polygon id="Fill-2" fill="#FCCA51" points="0 12.011018 21.6287425 12.011018 21.6287425 6.60502994 0 6.60502994"></polygon>
                        <polygon id="Fill-3" fill="#FCCA51" points="78.4047904 22.8253892 89.2191617 22.8253892 89.2191617 17.4182036 78.4047904 17.4182036"></polygon>
                        <polygon id="Fill-4" fill="#FCCA51" points="78.4047904 33.6397605 89.2191617 33.6397605 89.2191617 28.2325749 78.4047904 28.2325749"></polygon>
                        <polygon id="Fill-5" fill="#FCCA51" points="62.1832335 12.011018 83.811976 12.011018 83.811976 6.60383234 62.1832335 6.60383234"></polygon>
                        <polygon id="Fill-6" fill="#FCCA51" points="110.172096 33.6409581 102.737365 33.6409581 102.736168 26.2062275"></polygon>
                        <polygon id="Fill-7" fill="#FCCA51" points="180.465868 12.011018 188.576048 12.011018 188.576048 6.60383234 180.465868 6.60383234"></polygon>
                        <g id="Group-23" transform="translate(0.000000, 0.733174)">
                            <path d="M188.576647,22.1017964 C191.562275,22.1017964 193.983832,24.5221557 193.983832,27.508982 C193.983832,30.4946108 191.562275,32.9161677 188.576647,32.9161677 L188.576647,38.3233533 C194.549102,38.3233533 199.38982,33.4814371 199.38982,27.508982 C199.38982,21.5365269 194.549102,16.6946108 188.576647,16.6946108 L188.576647,16.6862275 L180.466467,16.6862275 L180.466467,22.0934132 L188.576647,22.0934132 L188.576647,22.1017964 Z" id="Fill-8" fill="#FCCA51"></path>
                            <path d="M16.2215569,22.0930539 C19.2083832,22.0930539 21.6287425,24.5134132 21.6287425,27.5002395 C21.6287425,30.4870659 19.2083832,32.9074251 16.2215569,32.9074251 L16.2215569,38.3146108 C22.194012,38.3146108 27.0359281,33.4726946 27.0359281,27.5002395 C27.0359281,21.5277844 22.194012,16.6858683 16.2215569,16.6858683 L7.80598802,16.6858683 L5.19760479,22.0930539 L16.2215569,22.0930539 Z" id="Fill-10" fill="#FCCA51"></path>
                            <mask id="mask-2" fill="white">
                                <use xlink:href="#path-1"></use>
                            </mask>
                            <g id="Clip-13"></g>
                            <polygon id="Fill-12" fill="#FCCA51" mask="url(#mask-2)" points="33.7952096 32.8598802 39.2023952 32.8598802 39.2023952 5.8239521 33.7952096 5.8239521"></polygon>
                            <polygon id="Fill-14" fill="#FCCA51" mask="url(#mask-2)" points="67.5904192 32.9077844 72.9976048 32.9077844 72.9976048 0.464670659 67.5904192 0.464670659"></polygon>
                            <polygon id="Fill-15" fill="#FCCA51" mask="url(#mask-2)" points="95.9772455 32.9077844 101.385629 32.9077844 101.385629 5.87185629 95.9772455 5.87185629"></polygon>
                            <polygon id="Fill-16" fill="#FCCA51" mask="url(#mask-2)" points="112.198922 5.87161677 112.198922 11.2788024 117.607305 11.2788024 117.607305 32.9075449 123.013293 32.9075449 123.013293 5.87161677"></polygon>
                            <path d="M60.8311377,22.0456287 L60.8311377,26.1007186 C60.8311377,30.5797605 57.2,34.2120958 52.7209581,34.2120958 C48.2407186,34.2120958 44.6095808,30.5797605 44.6095808,26.1007186 L44.6095808,22.0456287 C44.6095808,20.5522156 43.3988024,19.3414371 41.9053892,19.3414371 C40.4131737,19.3414371 39.2023952,20.5522156 39.2023952,22.0456287 L33.7952096,22.0456287 C33.7952096,17.5665868 37.4263473,13.9354491 41.9053892,13.9354491 C46.3844311,13.9354491 50.0167665,17.5665868 50.0167665,22.0456287 L50.0167665,26.1007186 C50.0167665,27.5941317 51.2263473,28.8049102 52.7209581,28.8049102 C54.2131737,28.8049102 55.4239521,27.5941317 55.4239521,26.1007186 L55.4239521,22.0456287 L60.8311377,22.0456287 Z" id="Fill-17" fill="#FCCA51" mask="url(#mask-2)"></path>
                            <path d="M168.963593,27.7120958 C168.858204,28.7324551 167.995928,29.5276647 166.946826,29.5276647 C165.828263,29.5276647 164.919281,28.6198802 164.919281,27.5001198 C164.919281,26.3803593 165.828263,25.4725749 166.946826,25.4725749 C167.995928,25.4725749 168.858204,26.2677844 168.963593,27.2881437 L168.963593,27.7120958 Z M171.96,25.4725749 C171.411497,24.1180838 170.33006,23.0354491 168.975569,22.4869461 L168.975569,14.6582036 L164.919281,14.6582036 L164.919281,22.4881437 C162.938443,23.2905389 161.540838,25.2318563 161.540838,27.5001198 C161.540838,30.4869461 163.961198,32.9073054 166.946826,32.9073054 C169.216287,32.9073054 171.157605,31.508503 171.96,29.5276647 L175.058204,29.5276647 L175.058204,25.4725749 L171.96,25.4725749 Z" id="Fill-18" fill="#FCCA51" mask="url(#mask-2)"></path>
                            <polygon id="Fill-19" fill="#FCCA51" mask="url(#mask-2)" points="138.366108 27.5003593 151.402036 0.464431138 145.399641 0.464431138 132.363713 27.5003593"></polygon>
                            <polygon id="Fill-20" fill="#FCCA51" mask="url(#mask-2)" points="129.771257 11.2778443 151.401198 11.2778443 151.401198 5.87065868 129.771257 5.87065868"></polygon>
                            <path d="M145.99497,22.0930539 C148.980599,22.0930539 151.402156,24.5134132 151.402156,27.5002395 C151.402156,30.4870659 148.980599,32.9074251 145.99497,32.9074251 L145.99497,38.3146108 C151.966228,38.3146108 156.808144,33.4726946 156.808144,27.5002395 C156.808144,21.5277844 151.966228,16.6858683 145.99497,16.6858683 L137.579401,16.6858683 L134.971018,22.0930539 L145.99497,22.0930539 Z" id="Fill-21" fill="#FCCA51" mask="url(#mask-2)"></path>
                            <polygon id="Fill-22" fill="#FCCA51" mask="url(#mask-2)" points="164.918563 21.4167665 175.057485 21.4167665 175.057485 17.3616766 164.918563 17.3616766"></polygon>
                        </g>
                    </g>
                    <text id="賃貸管理マニュアル" font-family="HiraKakuProN-W3, Hiragino Kaku Gothic ProN" font-size="16" font-weight="300" letter-spacing="7" fill="#FCCA51">
                        <tspan x="0" y="14">賃貸管理マニュア</tspan>
                        <tspan x="184" y="14">ル</tspan>
                    </text>
                </g>
            </g>
        </g>
    </g>
</svg>