<?xml version="1.0" encoding="UTF-8" standalone="no"?>
<svg width="36px" height="27px" viewBox="0 0 36 27" version="1.1" xmlns="http://www.w3.org/2000/svg" xmlns:xlink="http://www.w3.org/1999/xlink">
    <!-- Generator: Sketch 41.1 (35376) - http://www.bohemiancoding.com/sketch -->
    <title>iconmonstr-book-17</title>
    <desc>Created with Sketch.</desc>
    <defs></defs>
    <g id="Symbols" stroke="none" stroke-width="1" fill="none" fill-rule="evenodd" opacity="0.5">
        <g id="Header-Menu" transform="translate(-42.000000, -32.000000)" fill="#FFFFFF">
            <g id="iconmonstr-book-17">
                <g transform="translate(42.000000, 32.000000)">
                    <path d="M33.9884735,2.96296296 L33.9884735,23.5303704 L32.5107138,23.7037037 L32.5107138,0 C26.7548397,0.176296296 21.4201271,1.12888889 17.7301611,3.43111111 C14.0416728,1.12888889 8.71287129,0.176296296 2.95551943,0 L2.95551943,23.7037037 L1.47775972,23.5303704 L1.47775972,2.96296296 L0,2.96296296 L0,25.1851852 L13.3840698,25.1851852 C15.5696764,25.1851852 15.8090734,26.6666667 17.7301611,26.6666667 C19.6571597,26.6666667 19.889168,25.1851852 22.0777302,25.1851852 L35.4662332,25.1851852 L35.4662332,2.96296296 L33.9884735,2.96296296 Z M16.2553569,23.1777778 C13.3796365,22.0340741 10.1418649,21.2977778 5.91103887,20.9792593 L5.91103887,3.12592593 C9.38672972,3.41777778 13.2939264,4.12592593 16.2553569,5.97333333 L16.2553569,23.1777778 Z M29.5551943,20.9792593 C25.3243683,21.2977778 22.0865967,22.0340741 19.2108763,23.1777778 L19.2108763,5.97333333 C22.1723068,4.12592593 26.0795035,3.41777778 29.5551943,3.12592593 L29.5551943,20.9792593 L29.5551943,20.9792593 Z" id="Shape"></path>
                </g>
            </g>
        </g>
    </g>
</svg>