<?xml version="1.0" encoding="UTF-8" standalone="no"?>
<svg width="35px" height="32px" viewBox="0 0 35 32" version="1.1" xmlns="http://www.w3.org/2000/svg" xmlns:xlink="http://www.w3.org/1999/xlink">
    <!-- Generator: Sketch 41.1 (35376) - http://www.bohemiancoding.com/sketch -->
    <title>iconmonstr-help-6</title>
    <desc>Created with Sketch.</desc>
    <defs></defs>
    <g id="Symbols" stroke="none" stroke-width="1" fill="none" fill-rule="evenodd" opacity="0.5">
        <g id="Header-Menu" transform="translate(-162.000000, -30.000000)" fill="#FFFFFF">
            <g id="iconmonstr-help-6">
                <g transform="translate(162.000000, 30.000000)">
                    <path d="M17.4545455,2.90909091 C25.4749091,2.90909091 32,8.13381818 32,14.5556364 C32,21.7076364 24.5163636,26.1352727 17.5854545,26.1352727 C14.768,26.1352727 12.6647273,25.5578182 11.1941818,25.1985455 C9.73963636,26.0901818 8.87418182,26.7069091 4.98036364,27.8458182 C5.75854545,25.8487273 6.032,23.8487273 5.856,21.6421818 C4.63709091,20.1876364 2.91054545,18.1512727 2.91054545,14.5556364 C2.90909091,8.13381818 9.43418182,2.90909091 17.4545455,2.90909091 L17.4545455,2.90909091 Z M17.4545455,2.58379177e-15 C8.23563636,2.58379177e-15 0,6.14690909 0,14.5556364 C0,17.5374545 1.07345455,20.4654545 2.97745455,22.7374545 C3.05745455,25.3992727 1.48945455,29.2189091 0.0785454545,32 C3.86327273,31.3163636 9.24363636,29.8065455 11.6829091,28.3112727 C13.7454545,28.8130909 15.7192727,29.0429091 17.5869091,29.0429091 C27.8909091,29.0429091 34.9105455,22.0072727 34.9105455,14.5541818 C34.9090909,6.10181818 26.6167273,0 17.4545455,0 L17.4545455,2.58379177e-15 Z M18.944,20.3272727 C18.944,21.1505455 18.2778182,21.8181818 17.4545455,21.8181818 C16.6327273,21.8181818 15.9650909,21.1505455 15.9650909,20.3272727 C15.9650909,19.5054545 16.6327273,18.8378182 17.4545455,18.8378182 C18.2778182,18.8378182 18.944,19.5054545 18.944,20.3272727 L18.944,20.3272727 Z M20.6036364,8.41163636 C19.8792727,7.67709091 18.7985455,7.27272727 17.5636364,7.27272727 C14.9658182,7.27272727 13.2858182,9.12145455 13.2858182,11.9810909 L15.6814545,11.9810909 C15.6814545,10.2109091 16.6705455,9.58254545 17.5156364,9.58254545 C18.2705455,9.58254545 19.072,10.0843636 19.1403636,11.0429091 C19.216,12.0523636 18.6763636,12.5643636 17.9941818,13.2145455 C16.3112727,14.8145455 16.2792727,15.5898182 16.288,17.3483636 L18.6778182,17.3483636 C18.6632727,16.5570909 18.7141818,15.9141818 19.792,14.752 C20.5992727,13.8821818 21.6029091,12.8 21.6232727,11.1490909 C21.6349091,10.0465455 21.2843636,9.09963636 20.6036364,8.41163636 L20.6036364,8.41163636 Z" id="Shape"></path>
                </g>
            </g>
        </g>
    </g>
</svg>