<?xml version="1.0" encoding="UTF-8" standalone="no"?>
<svg width="20px" height="20px" viewBox="0 0 20 20" version="1.1" xmlns="http://www.w3.org/2000/svg" xmlns:xlink="http://www.w3.org/1999/xlink">
    <!-- Generator: Sketch 41.1 (35376) - http://www.bohemiancoding.com/sketch -->
    <title>iconmonstr-gear-2</title>
    <desc>Created with Sketch.</desc>
    <defs></defs>
    <g id="Symbols" stroke="none" stroke-width="1" fill="none" fill-rule="evenodd" opacity="0.5">
        <g id="User-Menu" fill="#FFFFFF">
            <g id="Group-9">
                <g>
                    <g id="iconmonstr-gear-2">
                        <path d="M20,11.8225 L20,8.1775 C18.21,7.53916667 17.7283333,7.50916667 17.4775,6.90333333 C17.225,6.29583333 17.5466667,5.92916667 18.36,4.2175 L15.7825,1.64 C14.0941667,2.4425 13.7091667,2.77666667 13.0958333,2.5225 C12.49,2.27083333 12.4558333,1.78166667 11.8233333,0 L8.1775,0 C7.54083333,1.78666667 7.51083333,2.27083333 6.90333333,2.5225 C6.27666667,2.78333333 5.90083333,2.43916667 4.2175,1.64 L1.64,4.2175 C2.45416667,5.93 2.775,6.295 2.5225,6.90416667 C2.27083333,7.51 1.78833333,7.54083333 0,8.1775 L0,11.8233333 C1.7825,12.4566667 2.27083333,12.49 2.5225,13.0966667 C2.77583333,13.7083333 2.455,14.0691667 1.64,15.7825 L4.2175,18.36 C5.88333333,17.5683333 6.27583333,17.2158333 6.90333333,17.4775 C7.51,17.7291667 7.54,18.2108333 8.1775,20 L11.8225,20 C12.4541667,18.2241667 12.4883333,17.7308333 13.1033333,17.4741667 C13.7241667,17.2175 14.0916667,17.5566667 15.7825,18.3591667 L18.36,15.7816667 C17.5475,14.0733333 17.225,13.705 17.4775,13.0958333 C17.7275,12.4908333 18.2108333,12.46 20,11.8225 L20,11.8225 Z M15.9375,12.4591667 C15.4566667,13.6208333 15.8808333,14.5075 16.3441667,15.4408333 L15.4408333,16.3441667 C14.53,15.8916667 13.64,15.4475 12.4633333,15.9358333 C11.3,16.42 10.9716667,17.3466667 10.64,18.3333333 L9.36166667,18.3333333 C9.03,17.3458333 8.7025,16.4191667 7.5425,15.9375 C6.36,15.4475 5.45333333,15.9 4.56,16.3441667 L3.6575,15.4408333 C4.12166667,14.5091667 4.54583333,13.6241667 4.06333333,12.4575 C3.58083333,11.2983333 2.65416667,10.9708333 1.66666667,10.6391667 L1.66666667,9.36166667 C2.65416667,9.03 3.58083333,8.7025 4.0625,7.54166667 C4.54416667,6.38 4.11916667,5.4925 3.65583333,4.55916667 L4.55916667,3.65583333 C5.46083333,4.10416667 6.36083333,4.55333333 7.5425,4.0625 C8.7025,3.58166667 9.03,2.65416667 9.36166667,1.66666667 L10.64,1.66666667 C10.9716667,2.65416667 11.3,3.58083333 12.46,4.0625 C13.6425,4.5525 14.5483333,4.1 15.4425,3.65583333 L16.3458333,4.55916667 C15.8825,5.49333333 15.4583333,6.38166667 15.9391667,7.5425 C16.42,8.70166667 17.3466667,9.02916667 18.335,9.36166667 L18.335,10.64 C17.345,10.9716667 16.4166667,11.2991667 15.9375,12.4591667 Z M10,7.5 C11.3783333,7.5 12.5,8.62166667 12.5,10 C12.5,11.3783333 11.3783333,12.5 10,12.5 C8.62166667,12.5 7.5,11.3783333 7.5,10 C7.5,8.62166667 8.62166667,7.5 10,7.5 Z M10,5.83333333 C7.69833333,5.83333333 5.83333333,7.69833333 5.83333333,10 C5.83333333,12.3016667 7.69833333,14.1666667 10,14.1666667 C12.3016667,14.1666667 14.1666667,12.3016667 14.1666667,10 C14.1666667,7.69833333 12.3016667,5.83333333 10,5.83333333 Z" id="Shape"></path>
                    </g>
                </g>
            </g>
        </g>
    </g>
</svg>