<?xml version="1.0" encoding="UTF-8" standalone="no"?>
<svg width="35px" height="32px" viewBox="0 0 35 32" version="1.1" xmlns="http://www.w3.org/2000/svg" xmlns:xlink="http://www.w3.org/1999/xlink">
    <!-- Generator: Sketch 41.1 (35376) - http://www.bohemiancoding.com/sketch -->
    <title>iconmonstr-speech-bubble-26</title>
    <desc>Created with Sketch.</desc>
    <defs></defs>
    <g id="Symbols" stroke="none" stroke-width="1" fill="none" fill-rule="evenodd" opacity="0.5">
        <g id="Header-Menu" transform="translate(-283.000000, -30.000000)" fill="#FFFFFF">
            <g id="iconmonstr-speech-bubble-26">
                <g transform="translate(283.000000, 30.000000)">
                    <path d="M14.2769231,2.85824 C20.5744738,2.85824 25.6984615,6.92573538 25.6984615,11.9240862 C25.6984615,16.2571323 21.3739815,20.9342523 14.384,20.9342523 C12.1282462,20.9342523 10.5035323,20.4816738 9.07584,20.1333169 C7.69668923,20.9799385 7.28265846,21.2940308 4.78419692,22.0935385 C5.37668923,19.9263015 5.30102154,18.9783138 5.25676308,17.5477662 C4.06178462,16.1186462 2.85538462,14.5938708 2.85538462,11.9240862 C2.85538462,6.92573538 7.97937231,2.85824 14.2769231,2.85824 L14.2769231,2.85824 Z M14.2769231,2.536091e-15 C6.73728,2.536091e-15 0,5.03404308 0,11.9240862 C0,14.3668677 0.878030769,16.7653908 2.43421538,18.6271015 C2.50131692,20.8071877 1.21924923,23.9352615 0.0628184615,26.2110031 C3.15805538,25.6527754 7.56105846,24.4149662 9.55554462,23.1914338 C11.2416492,23.6040369 12.8563692,23.7924923 14.384,23.7924923 C22.8116677,23.7924923 28.5538462,18.0274708 28.5538462,11.9240862 C28.5538462,4.99692308 21.77088,0 14.2769231,0 L14.2769231,2.536091e-15 Z M30.7453538,15.9530338 C30.5154954,16.6497477 30.2299569,17.3250462 29.8873108,17.9746462 C32.2815508,19.7763938 33.1096123,22.5803815 30.54976,25.6342154 C30.5197785,26.6978462 30.4798031,27.1318646 30.7467815,28.2968615 C29.47328,27.85856 29.3490708,27.7372062 28.3696738,27.1361477 C25.3329723,27.87712 22.2805662,28.1298215 19.6764554,25.9154708 C18.8740923,26.1424738 18.0417477,26.3123692 17.1922708,26.4351508 C19.3523692,29.1149292 23.3284923,30.5711754 28.0098954,29.4333046 C29.3148062,30.23424 32.1973169,31.0423138 34.2232123,31.4106585 C33.4665354,29.91872 32.62848,27.8714092 32.6698831,26.4437169 C35.1754831,23.4484185 34.8728123,18.6827815 30.7453538,15.9530338 L30.7453538,15.9530338 Z M9.28,10.5806277 C8.43623385,10.5806277 7.75094154,11.2644923 7.75094154,12.1096862 C7.75094154,12.95488 8.43623385,13.6387446 9.28,13.6387446 C10.1237662,13.6387446 10.8090585,12.95488 10.8090585,12.1096862 C10.8090585,11.2644923 10.1237662,10.5806277 9.28,10.5806277 Z M14.2769231,10.5806277 C13.4331569,10.5806277 12.7478646,11.2644923 12.7478646,12.1096862 C12.7478646,12.95488 13.4331569,13.6387446 14.2769231,13.6387446 C15.1206892,13.6387446 15.8059815,12.95488 15.8059815,12.1096862 C15.8059815,11.2644923 15.1206892,10.5806277 14.2769231,10.5806277 Z M19.2738462,10.5806277 C18.43008,10.5806277 17.7447877,11.2644923 17.7447877,12.1096862 C17.7447877,12.95488 18.43008,13.6387446 19.2738462,13.6387446 C20.1176123,13.6387446 20.8029046,12.95488 20.8029046,12.1096862 C20.8029046,11.2644923 20.1176123,10.5806277 19.2738462,10.5806277 Z" id="Shape"></path>
                </g>
            </g>
        </g>
    </g>
</svg>