<?xml version="1.0" encoding="utf-8"?>
<!-- Generator: Adobe Illustrator 15.1.0, SVG Export Plug-In  -->
<!DOCTYPE svg PUBLIC "-//W3C//DTD SVG 1.1//EN" "http://www.w3.org/Graphics/SVG/1.1/DTD/svg11.dtd" [
	<!ENTITY ns_flows "http://ns.adobe.com/Flows/1.0/">
]>
<svg version="1.1"
	 xmlns="http://www.w3.org/2000/svg" xmlns:xlink="http://www.w3.org/1999/xlink" xmlns:a="http://ns.adobe.com/AdobeSVGViewerExtensions/3.0/"
	 x="0px" y="0px" width="382px" height="91px" viewBox="0 0 382 91" overflow="visible" enable-background="new 0 0 382 91"
	 xml:space="preserve">
<defs>
</defs>
<radialGradient id="SVGID_1_" cx="-178.582" cy="407.4121" r="1.7358" gradientTransform="matrix(32.5976 0 0 -32.5976 6136.1719 13327.8438)" gradientUnits="userSpaceOnUse">
	<stop  offset="0" style="stop-color:#FFFFFF"/>
	<stop  offset="0.0914" style="stop-color:#F6D5D9"/>
	<stop  offset="0.2183" style="stop-color:#ECA2A9"/>
	<stop  offset="0.3476" style="stop-color:#E37681"/>
	<stop  offset="0.477" style="stop-color:#DB5260"/>
	<stop  offset="0.6064" style="stop-color:#D53646"/>
	<stop  offset="0.736" style="stop-color:#D12234"/>
	<stop  offset="0.866" style="stop-color:#CF1629"/>
	<stop  offset="0.997" style="stop-color:#CE1225"/>
	<stop  offset="1" style="stop-color:#CE1225"/>
</radialGradient>
<path fill="url(#SVGID_1_)" d="M377.078,3.9c-7.777,0-23.82,6.046-43.197,16.177c0.254,0.329,0.502,0.658,0.746,0.994
	c23.258-12.057,41.139-17.778,43.951-13.236c3.125,5.008-13.15,21.029-38.305,38.626c-5.711,3.997-11.875,8.066-18.379,12.115
	c-8.467,5.265-16.719,9.998-24.434,14.075c-24.311,12.823-43.219,19.042-46.123,14.372c-2.607-4.188,8.301-16.041,26.602-30.067
	c-0.211-0.363-0.402-0.735-0.594-1.106c-20.15,15.307-32.275,28.398-29.41,32.999c3.201,5.145,24.072-1.77,50.592-15.926
	c7.551-4.031,15.557-8.645,23.748-13.744c6.275-3.901,12.236-7.839,17.818-11.711c27.27-18.932,45.047-36.396,41.629-41.875
	C381.012,4.447,379.418,3.9,377.078,3.9z"/>
<path fill="#00549C" d="M26.258,0c6.578,0,11.957,2,16.139,6c4.18,3.998,6.269,8.99,6.269,14.976c0,7.701-2.42,14.183-7.257,19.444
	c-4.84,5.264-11.255,7.894-19.257,7.894c-6.491,0-11.808-2.121-15.945-6.361C2.072,37.704,0,32.613,0,26.67
	c0-4.008,0.998-8.125,2.991-12.348C4.989,10.1,7.99,6.658,12,3.993C16.011,1.334,20.764,0,26.258,0 M26.07,45.832
	c3.223,0,6.404-0.864,9.55-2.595c3.135-1.729,5.607-4.11,7.415-7.146c1.802-3.035,2.705-6.153,2.705-9.358
	c0-4.54-1.214-8.663-3.647-12.381c-2.427-3.71-5.577-6.617-9.45-8.718c-3.877-2.101-7.458-3.152-10.745-3.152
	c-4.646,0-8.861,1.75-12.651,5.254c-3.787,3.499-5.682,7.852-5.682,13.049c0,6.639,2.316,12.476,6.939,17.505
	C15.129,43.318,20.319,45.832,26.07,45.832"/>
<path fill="#00549C" d="M79.512,1.179V0.7h13.373c4.753,0,8.199,0.527,10.359,1.594c2.149,1.062,3.723,2.383,4.708,3.967
	c0.985,1.584,1.479,3.671,1.479,6.264c0,3.973-1.369,6.958-4.107,8.953c-2.737,2.001-6.448,2.957-11.134,2.874V23.87
	c2.968,0,5.383-0.911,7.241-2.736c1.853-1.826,2.785-4.224,2.785-7.19c0-2.317-0.454-4.368-1.354-6.159
	c-0.9-1.799-2.171-3.158-3.804-4.092c-1.635-0.935-4.131-1.403-7.481-1.403h-3.34V42.4c0,2.265,0.254,3.62,0.763,4.054
	c0.51,0.435,1.475,0.651,2.9,0.651v0.476H79.512v-0.476c2.208,0,3.313-1.006,3.313-3.021V5.281c0-1.655-0.213-2.754-0.638-3.293
	C81.764,1.449,80.872,1.179,79.512,1.179"/>
<path fill="#00549C" d="M171.466,0.7h9.069v0.479c-1.378,0.038-2.332,0.33-2.86,0.876c-0.535,0.541-0.799,1.679-0.799,3.418v42.686
	L139.479,8.334v34.668c0,1.104,0.085,1.921,0.253,2.449c0.173,0.53,0.415,0.893,0.733,1.083c0.319,0.19,1.114,0.379,2.388,0.571
	v0.476h-9.006v-0.476c1.611,0,2.614-0.283,3.008-0.858c0.389-0.575,0.589-1.943,0.589-4.102V10.431c0-2.776-0.389-5.042-1.162-6.805
	c-0.777-1.761-2.564-2.575-5.364-2.447V0.7h8.814l35.136,37.416V5.027c0-1.781-0.313-2.87-0.95-3.26
	c-0.636-0.395-1.453-0.588-2.451-0.588V0.7z"/>
<path fill="#00549C" d="M204.186,1.181V0.702h21.517c5.472,0,9.796,0.429,12.967,1.286c3.171,0.861,5.938,2.211,8.294,4.059
	c2.354,1.845,4.223,4.209,5.602,7.082c1.375,2.876,2.068,6.083,2.068,9.627c0,3.421-0.719,6.773-2.148,10.076
	c-1.434,3.297-3.381,6.142-5.842,8.53c-2.462,2.388-5.055,4.023-7.781,4.901c-2.725,0.879-6.943,1.321-12.655,1.321h-22.021v-0.479
	h0.574c1.143,0,1.896-0.461,2.26-1.384c0.359-0.919,0.541-2.589,0.541-5.006V6.583c0-2.543-0.217-4.08-0.656-4.609
	C206.472,1.443,205.563,1.181,204.186,1.181 M220.164,1.686h-7.193v36.379c0,2.292,0.387,3.995,1.158,5.109
	c0.777,1.115,2.098,1.923,3.963,2.417c1.869,0.501,4.383,0.752,7.547,0.752c8.782,0,14.953-2.254,18.507-6.767
	c3.55-4.507,5.329-9.426,5.329-14.751c0-6.26-2.431-11.685-7.305-16.266C237.301,3.979,229.965,1.686,220.164,1.686"/>
<path fill="#00549C" d="M278.248,1.181V0.702h13.305c3.373,0,5.812,0.072,7.32,0.223c1.506,0.148,3.051,0.642,4.633,1.479
	c1.58,0.838,2.773,1.975,3.58,3.406c0.805,1.436,1.211,3.195,1.211,5.273c0,2.381-0.719,4.647-2.148,6.803
	c-1.438,2.154-3.457,3.978-6.062,5.462l3.307,5.088c0.721,1.27,2.637,4.057,5.746,8.364c3.109,4.303,5.512,6.925,7.211,7.867
	c1.695,0.947,3.342,1.416,4.93,1.416c1.572,0,3.375-0.603,5.412-1.812l0.189,0.638c-2.541,2.079-5.846,3.118-9.92,3.118
	c-2.711,0-5.043-0.803-6.996-2.409c-1.947-1.604-5.346-6.014-10.182-13.223c-0.045-0.042-0.064-0.086-0.064-0.13l-4.713-7.25
	l-4.18,0.127h-3.793v17.924c0,1.445,0.189,2.475,0.568,3.1c0.379,0.624,1.291,0.938,2.744,0.938v0.479h-12.098v-0.479
	c1.508-0.062,2.449-0.379,2.818-0.954c0.371-0.573,0.555-1.739,0.555-3.497V5.406c0-1.207-0.156-2.208-0.477-3.002
	C280.828,1.605,279.859,1.197,278.248,1.181 M287.033,1.94v21.994h4.914c3.865,0,6.738-0.913,8.605-2.738
	c1.875-1.825,2.809-4.218,2.809-7.193c0-2.884-0.918-5.619-2.758-8.197c-1.84-2.574-5.076-3.866-9.709-3.866H287.033z"/>
<path fill="#00549C" d="M12.772,66.455c0-0.817,0.118-1.58,0.353-2.286c0.235-0.712,0.635-1.367,1.199-1.97
	c0.562-0.604,1.241-1.064,2.042-1.398c0.793-0.331,1.694-0.497,2.7-0.497c1.857,0,3.334,0.511,4.44,1.521
	c1.098,1.01,1.652,2.391,1.652,4.141c0,1.231-0.27,2.341-0.812,3.322c-0.538,0.979-1.312,1.744-2.315,2.29
	c-1.007,0.544-2.138,0.817-3.391,0.817c-0.892,0-1.708-0.148-2.456-0.447c-0.746-0.295-1.384-0.739-1.91-1.33
	c-0.526-0.586-0.909-1.268-1.146-2.045C12.89,67.805,12.772,67.096,12.772,66.455 M14.473,65.919c0,0.661,0.105,1.381,0.323,2.144
	c0.217,0.767,0.538,1.424,0.965,1.974c0.429,0.55,0.923,0.957,1.481,1.221c0.56,0.269,1.198,0.401,1.908,0.401
	c0.847,0,1.597-0.191,2.262-0.578c0.655-0.39,1.158-0.989,1.503-1.807c0.343-0.811,0.518-1.729,0.518-2.743
	c0-1.099-0.2-2.097-0.589-2.985c-0.396-0.888-0.953-1.532-1.679-1.936c-0.725-0.407-1.529-0.608-2.414-0.608
	c-1.324,0-2.369,0.414-3.135,1.242C14.856,63.074,14.473,64.298,14.473,65.919"/>
<path fill="#00549C" d="M28.693,64.298l0.155,0.109c-0.035,0.312-0.059,0.873-0.073,1.682l0.611-0.777
	c0.205-0.254,0.382-0.452,0.536-0.594c0.158-0.14,0.339-0.245,0.543-0.323c0.21-0.078,0.421-0.115,0.641-0.115
	c0.241,0,0.464,0.052,0.678,0.15l0.058,0.115c-0.089,0.725-0.135,1.363-0.146,1.909H31.33c-0.224-0.499-0.573-0.75-1.059-0.75
	c-0.339,0-0.632,0.109-0.886,0.322c-0.247,0.217-0.416,0.488-0.5,0.811c-0.087,0.326-0.125,0.732-0.125,1.232v0.905
	c0,0.166,0.009,0.569,0.028,1.204c0.021,0.637,0.049,1.004,0.072,1.104c0.025,0.099,0.061,0.166,0.116,0.217
	c0.05,0.049,0.118,0.078,0.203,0.096c0.086,0.013,0.475,0.044,1.167,0.08l0.074,0.066v0.343l-0.074,0.073
	c-0.726-0.044-1.482-0.066-2.275-0.066c-0.631,0-1.285,0.022-1.963,0.066l-0.071-0.073v-0.343l0.071-0.066
	c0.529-0.033,0.828-0.061,0.898-0.073c0.065-0.018,0.125-0.051,0.178-0.103c0.053-0.054,0.086-0.132,0.104-0.237
	c0.023-0.104,0.044-0.458,0.067-1.054c0.025-0.598,0.035-1.048,0.035-1.354v-1.61c0-0.219-0.01-0.516-0.032-0.895
	c-0.023-0.377-0.037-0.607-0.053-0.695c-0.015-0.086-0.056-0.153-0.128-0.192c-0.069-0.039-0.209-0.063-0.424-0.063l-0.687-0.007
	l-0.075-0.068V64.98l0.068-0.069C27.101,64.787,27.979,64.579,28.693,64.298"/>
<path fill="#00549C" d="M41.191,64.865l0.066,0.146c-0.225,0.342-0.361,0.565-0.417,0.668h-1.523
	c0.154,0.302,0.231,0.617,0.231,0.941c0,0.387-0.09,0.764-0.266,1.131c-0.178,0.365-0.424,0.674-0.742,0.933
	c-0.315,0.257-0.671,0.458-1.072,0.614c-0.403,0.149-0.86,0.227-1.375,0.227H35.72c-0.324,0.259-0.528,0.449-0.622,0.573
	c-0.091,0.125-0.139,0.254-0.139,0.384c0,0.239,0.11,0.409,0.333,0.507c0.22,0.1,0.675,0.15,1.373,0.15l1.833-0.027
	c0.576,0,1.017,0.067,1.324,0.205c0.312,0.134,0.561,0.379,0.748,0.73c0.193,0.353,0.288,0.726,0.288,1.119
	c0,0.601-0.197,1.197-0.584,1.796c-0.39,0.597-0.954,1.05-1.689,1.361c-0.737,0.309-1.52,0.465-2.356,0.465
	c-0.474,0-0.918-0.05-1.337-0.156c-0.416-0.104-0.781-0.26-1.098-0.471c-0.311-0.211-0.561-0.481-0.754-0.819
	c-0.191-0.337-0.287-0.693-0.287-1.056c0-0.204,0.032-0.413,0.088-0.635c0.065-0.22,0.179-0.458,0.347-0.716l1.479-0.823
	c-0.476-0.15-0.772-0.296-0.893-0.438c-0.126-0.146-0.185-0.317-0.185-0.518c0-0.211,0.067-0.451,0.202-0.74l1.317-0.946
	c-0.773-0.202-1.296-0.508-1.569-0.909c-0.268-0.403-0.403-0.847-0.403-1.326c0-0.444,0.097-0.865,0.289-1.265
	c0.189-0.4,0.476-0.718,0.864-0.959c0.379-0.239,0.81-0.432,1.289-0.57c0.479-0.139,0.914-0.207,1.31-0.207
	c0.679,0,1.325,0.221,1.943,0.661C39.815,64.895,40.603,64.885,41.191,64.865 M36.938,72.248c-0.875,0-1.381,0.01-1.516,0.033
	c-0.136,0.021-0.324,0.115-0.57,0.278c-0.243,0.163-0.444,0.386-0.6,0.669c-0.155,0.281-0.236,0.593-0.236,0.945
	c0,0.613,0.235,1.115,0.689,1.502c0.46,0.387,1.07,0.581,1.832,0.581c0.576,0,1.105-0.122,1.591-0.36
	c0.486-0.241,0.842-0.562,1.075-0.964c0.23-0.402,0.348-0.789,0.348-1.163c0-0.371-0.099-0.688-0.291-0.952
	c-0.193-0.265-0.445-0.428-0.751-0.481C38.198,72.278,37.673,72.248,36.938,72.248 M34.543,66.761c0,0.332,0.066,0.688,0.195,1.071
	c0.132,0.383,0.342,0.668,0.634,0.869c0.292,0.196,0.621,0.294,0.983,0.294c0.488,0,0.906-0.16,1.259-0.475
	c0.349-0.315,0.525-0.813,0.525-1.481c0-0.567-0.159-1.08-0.482-1.53c-0.322-0.455-0.772-0.678-1.365-0.678
	c-0.493,0-0.91,0.162-1.246,0.484C34.708,65.642,34.543,66.123,34.543,66.761"/>
<path fill="#00549C" d="M46.153,60.537c1.377,0.042,2.251,0.065,2.627,0.065c0.512,0,1.091-0.013,1.726-0.041
	c0.677-0.024,1.094-0.034,1.252-0.034c0.765,0,1.395,0.083,1.894,0.237c0.501,0.16,0.913,0.446,1.24,0.865
	c0.33,0.424,0.49,0.929,0.49,1.523c0,0.491-0.115,0.963-0.342,1.423c-0.229,0.459-0.55,0.85-0.956,1.171
	c-0.407,0.318-0.825,0.553-1.244,0.692c-0.42,0.138-0.857,0.207-1.311,0.207c-0.337,0-0.713-0.038-1.129-0.115l-0.14-0.496
	l0.075-0.085c0.412,0.097,0.74,0.14,1,0.14c0.715,0,1.288-0.234,1.722-0.707c0.43-0.472,0.649-1.075,0.649-1.813
	c0-0.74-0.227-1.335-0.678-1.773c-0.444-0.442-1.127-0.662-2.039-0.662c-0.499,0-1.042,0.091-1.635,0.274
	c-0.052,0.422-0.075,1.433-0.075,3.045v3.786l0.009,1.596c0.003,0.614,0.022,1.015,0.049,1.194c0.024,0.18,0.065,0.302,0.115,0.359
	c0.052,0.058,0.151,0.111,0.299,0.149c0.153,0.044,0.51,0.073,1.088,0.099l0.067,0.046v0.409l-0.067,0.066
	c-1.391-0.044-2.169-0.066-2.345-0.066c-0.185,0-0.965,0.022-2.342,0.066l-0.063-0.066v-0.409l0.063-0.046
	c0.51-0.025,0.847-0.052,1.014-0.082c0.173-0.033,0.286-0.079,0.34-0.128c0.059-0.052,0.101-0.164,0.141-0.334
	c0.036-0.17,0.056-0.542,0.063-1.126l0.006-1.728v-3.786l-0.016-1.594c-0.006-0.625-0.021-1.024-0.047-1.204
	c-0.02-0.184-0.063-0.299-0.114-0.363c-0.05-0.057-0.152-0.105-0.298-0.146c-0.146-0.036-0.509-0.064-1.089-0.087l-0.063-0.062
	v-0.406L46.153,60.537z"/>
<path fill="#00549C" d="M58.933,64.298l0.153,0.109c-0.033,0.312-0.059,0.873-0.072,1.682l0.612-0.777
	c0.204-0.254,0.382-0.452,0.534-0.594c0.16-0.14,0.338-0.245,0.545-0.323c0.21-0.078,0.42-0.115,0.642-0.115
	c0.238,0,0.461,0.052,0.675,0.15l0.06,0.115c-0.088,0.725-0.138,1.363-0.147,1.909h-0.368c-0.219-0.499-0.569-0.75-1.056-0.75
	c-0.34,0-0.633,0.109-0.884,0.322c-0.249,0.217-0.418,0.488-0.503,0.811c-0.083,0.326-0.126,0.732-0.126,1.232v0.905
	c0,0.166,0.01,0.569,0.031,1.204c0.022,0.637,0.048,1.004,0.068,1.104c0.027,0.099,0.064,0.166,0.119,0.217
	c0.052,0.049,0.119,0.078,0.204,0.096c0.084,0.013,0.475,0.044,1.167,0.08l0.073,0.066v0.343l-0.073,0.073
	c-0.726-0.044-1.484-0.066-2.274-0.066c-0.628,0-1.284,0.022-1.966,0.066l-0.074-0.073v-0.343l0.074-0.066
	c0.532-0.033,0.828-0.061,0.898-0.073c0.066-0.018,0.126-0.051,0.18-0.103c0.051-0.054,0.085-0.132,0.104-0.237
	c0.022-0.104,0.042-0.458,0.067-1.054c0.023-0.598,0.038-1.048,0.038-1.354v-1.61c0-0.219-0.015-0.516-0.034-0.895
	c-0.024-0.377-0.039-0.607-0.052-0.695c-0.015-0.086-0.057-0.153-0.128-0.192c-0.072-0.039-0.21-0.063-0.424-0.063l-0.689-0.007
	l-0.073-0.068V64.98l0.066-0.069C57.339,64.787,58.217,64.579,58.933,64.298"/>
<path fill="#00549C" d="M62.963,68.347c0-0.647,0.134-1.277,0.402-1.875c0.269-0.604,0.732-1.125,1.394-1.563
	c0.661-0.438,1.45-0.659,2.361-0.659c1.146,0,2.076,0.359,2.795,1.086c0.723,0.719,1.083,1.647,1.083,2.784
	c0,1.245-0.417,2.276-1.239,3.083c-0.83,0.804-1.825,1.211-2.993,1.211c-0.762,0-1.445-0.208-2.045-0.617
	c-0.601-0.414-1.041-0.919-1.327-1.514C63.107,69.691,62.963,69.046,62.963,68.347 M64.508,67.785c0,0.763,0.102,1.444,0.293,2.045
	c0.201,0.604,0.51,1.088,0.937,1.454c0.43,0.363,0.908,0.55,1.456,0.55c0.645,0,1.174-0.255,1.594-0.77
	c0.419-0.506,0.63-1.275,0.63-2.301c0-1.159-0.228-2.112-0.681-2.854c-0.458-0.738-1.113-1.113-1.971-1.113
	c-0.709,0-1.261,0.258-1.657,0.77C64.712,66.079,64.508,66.818,64.508,67.785"/>
<path fill="#00549C" d="M74.564,64.298l0.154,0.109c-0.028,0.359-0.05,0.789-0.064,1.293l0.777-0.713
	c0.217-0.204,0.361-0.333,0.435-0.394c0.07-0.054,0.236-0.12,0.496-0.198c0.267-0.078,0.537-0.115,0.829-0.115
	c0.545,0,1.021,0.139,1.43,0.407c0.409,0.267,0.712,0.637,0.91,1.112c0.736-0.695,1.165-1.085,1.289-1.156
	c0.119-0.077,0.315-0.156,0.584-0.236c0.267-0.075,0.534-0.119,0.801-0.119c0.431,0,0.825,0.092,1.185,0.281
	c0.362,0.183,0.648,0.427,0.862,0.729c0.213,0.296,0.333,0.623,0.372,0.97c0.037,0.349,0.052,0.83,0.052,1.438v0.861
	c0,0.092,0.017,0.772,0.048,2.038c0.014,0.515,0.068,0.824,0.172,0.922c0.106,0.103,0.441,0.148,1.006,0.148l0.067,0.066v0.35
	l-0.067,0.066c-0.691-0.044-1.161-0.066-1.409-0.066c-0.135,0-0.529,0.022-1.183,0.066l-0.109-0.087
	c0.072-0.71,0.109-1.637,0.109-2.775v-0.983c0-0.869-0.042-1.476-0.123-1.822c-0.085-0.345-0.271-0.627-0.573-0.848
	c-0.301-0.22-0.66-0.332-1.072-0.332c-0.292,0-0.57,0.057-0.827,0.179c-0.255,0.116-0.485,0.288-0.692,0.519
	c-0.204,0.233-0.317,0.448-0.337,0.648c-0.022,0.2-0.035,0.569-0.035,1.098v1.024c0,0.242,0.013,0.688,0.035,1.351
	c0.02,0.657,0.042,1.04,0.069,1.152c0.023,0.109,0.062,0.187,0.115,0.231c0.049,0.05,0.109,0.078,0.179,0.092
	c0.069,0.013,0.361,0.036,0.879,0.069l0.073,0.066v0.343l-0.066,0.073c-0.681-0.044-1.338-0.066-1.972-0.066
	c-0.58,0-1.235,0.022-1.96,0.066l-0.077-0.073v-0.343l0.077-0.066c0.529-0.033,0.828-0.061,0.894-0.073
	c0.07-0.018,0.128-0.051,0.179-0.103c0.054-0.054,0.089-0.132,0.107-0.237c0.019-0.104,0.039-0.458,0.065-1.054
	c0.028-0.598,0.038-1.048,0.038-1.354V67.92c0-0.613-0.044-1.088-0.128-1.421c-0.086-0.331-0.264-0.613-0.541-0.844
	c-0.281-0.227-0.629-0.343-1.049-0.343c-0.329,0-0.625,0.06-0.896,0.19c-0.271,0.132-0.492,0.289-0.663,0.475
	c-0.169,0.19-0.277,0.365-0.315,0.532c-0.043,0.159-0.062,0.517-0.062,1.062v1.21c0,0.242,0.01,0.688,0.033,1.351
	c0.021,0.657,0.043,1.04,0.067,1.152c0.021,0.109,0.063,0.187,0.117,0.231c0.05,0.05,0.108,0.078,0.179,0.092
	c0.067,0.013,0.36,0.036,0.878,0.069l0.076,0.066v0.343l-0.068,0.073c-0.679-0.044-1.339-0.066-1.971-0.066
	c-0.625,0-1.281,0.022-1.96,0.066l-0.075-0.073v-0.343l0.075-0.066c0.526-0.033,0.825-0.061,0.893-0.073
	c0.071-0.018,0.127-0.051,0.18-0.103c0.055-0.054,0.091-0.132,0.108-0.237c0.019-0.104,0.039-0.458,0.064-1.054
	c0.024-0.598,0.038-1.048,0.038-1.354v-1.61c0-0.219-0.01-0.516-0.034-0.895c-0.02-0.377-0.039-0.607-0.053-0.695
	c-0.012-0.086-0.058-0.153-0.128-0.192c-0.069-0.039-0.211-0.063-0.425-0.063l-0.682-0.007l-0.079-0.068V64.98l0.064-0.069
	C72.971,64.787,73.85,64.579,74.564,64.298"/>
<path fill="#00549C" d="M91.072,72.148l-0.073-0.069v-0.378l0.073-0.063c0.332-0.007,0.594-0.028,0.797-0.059
	c0.199-0.033,0.323-0.091,0.384-0.162c0.058-0.078,0.096-0.2,0.115-0.37c0.017-0.169,0.039-0.549,0.056-1.146
	c0.023-0.594,0.033-1.021,0.033-1.271v-6.613c0-0.282-0.052-0.484-0.156-0.616c-0.1-0.132-0.236-0.218-0.412-0.256
	c-0.172-0.033-0.472-0.057-0.89-0.061l-0.068-0.065v-0.386l0.068-0.071c0.75,0.028,1.244,0.041,1.478,0.041
	c0.553,0,1.006-0.013,1.357-0.041l2.613,3.389l3.833,4.805c0.463,0.587,0.939,1.137,1.418,1.662v-6.328
	c0-0.201-0.011-0.618-0.03-1.258c-0.017-0.642-0.041-1.046-0.07-1.218c-0.024-0.173-0.072-0.289-0.145-0.349
	c-0.067-0.061-0.192-0.107-0.383-0.133c-0.186-0.031-0.445-0.051-0.764-0.058l-0.067-0.062v-0.379l0.067-0.071
	c0.442,0.028,1.07,0.041,1.89,0.041c0.747,0,1.288-0.013,1.628-0.041l0.073,0.071v0.379l-0.067,0.062
	c-0.358,0.007-0.637,0.027-0.833,0.065c-0.197,0.034-0.317,0.096-0.37,0.176c-0.048,0.078-0.082,0.2-0.099,0.359
	c-0.023,0.159-0.04,0.532-0.059,1.127c-0.019,0.597-0.03,1.023-0.03,1.289v3.883l0.011,2.248c0.009,0.738,0.019,1.476,0.029,2.218
	c-0.27-0.096-0.743-0.21-1.413-0.345l-0.58-0.689l-1.747-2.126l-5.542-6.926v6.277c0,0.247,0.008,0.695,0.031,1.339
	c0.017,0.642,0.039,1.032,0.067,1.167c0.025,0.14,0.062,0.234,0.102,0.285c0.048,0.051,0.143,0.1,0.284,0.143
	c0.144,0.045,0.448,0.068,0.898,0.075l0.063,0.063v0.385l-0.063,0.062c-0.283-0.036-0.744-0.056-1.375-0.056
	C92.393,72.093,91.684,72.112,91.072,72.148"/>
<path fill="#00549C" d="M111.686,70.891l-0.264,0.586c-0.569,0.369-1.071,0.605-1.516,0.717c-0.444,0.109-0.842,0.162-1.191,0.162
	c-0.651,0-1.273-0.128-1.857-0.383c-0.591-0.259-1.065-0.691-1.437-1.305c-0.368-0.611-0.552-1.344-0.552-2.205
	c0-0.577,0.075-1.089,0.213-1.55c0.144-0.464,0.292-0.807,0.446-1.027c0.16-0.224,0.42-0.476,0.791-0.747
	c0.374-0.271,0.763-0.486,1.177-0.653c0.417-0.16,0.861-0.244,1.343-0.244c0.657,0,1.23,0.155,1.729,0.46
	c0.502,0.31,0.852,0.703,1.051,1.185c0.204,0.478,0.304,0.989,0.304,1.529c0,0.167-0.008,0.332-0.025,0.492l-0.088,0.086
	c-0.373,0.085-0.874,0.137-1.499,0.167c-0.627,0.024-1.041,0.037-1.241,0.037h-2.628c0.009,1.133,0.293,1.963,0.854,2.497
	c0.556,0.532,1.237,0.804,2.04,0.804c0.385,0,0.751-0.067,1.102-0.196c0.353-0.134,0.724-0.316,1.119-0.55L111.686,70.891z
	 M106.44,67.544c0.099,0.016,0.478,0.038,1.132,0.061c0.66,0.02,1.147,0.03,1.461,0.03c0.757,0,1.219-0.014,1.383-0.041
	c0.002-0.129,0.006-0.231,0.006-0.302c0-0.848-0.171-1.472-0.515-1.883c-0.342-0.414-0.813-0.619-1.403-0.619
	c-0.656,0-1.157,0.23-1.523,0.694C106.623,65.949,106.44,66.634,106.44,67.544"/>
<path fill="#00549C" d="M115.307,64.298l0.158,0.109c-0.062,0.71-0.093,1.617-0.093,2.723v1.906c0,0.695,0.055,1.18,0.159,1.452
	c0.106,0.278,0.291,0.484,0.553,0.63c0.265,0.143,0.57,0.215,0.933,0.215c0.397,0,0.761-0.079,1.089-0.234
	c0.327-0.152,0.6-0.373,0.819-0.659c0.221-0.281,0.35-0.471,0.385-0.573c0.027-0.094,0.051-0.369,0.061-0.824l0.027-0.915v-0.883
	c0-0.219-0.011-0.516-0.035-0.895c-0.023-0.377-0.041-0.607-0.051-0.695c-0.015-0.086-0.061-0.153-0.129-0.192
	c-0.071-0.039-0.213-0.063-0.424-0.063l-0.688-0.007l-0.073-0.068V64.98l0.066-0.069c1.041-0.125,1.916-0.332,2.635-0.613
	l0.152,0.109c-0.062,0.71-0.092,1.617-0.092,2.723v1.438c0,0.08,0.014,0.754,0.042,2.005c0.009,0.464,0.039,0.743,0.087,0.847
	c0.046,0.1,0.108,0.174,0.191,0.214c0.081,0.04,0.324,0.058,0.73,0.058h0.226l0.074,0.067v0.327l-0.066,0.073
	c-0.769-0.044-1.285-0.066-1.545-0.066c-0.33,0-0.715,0.02-1.148,0.056l-0.077-0.062c0.035-0.558,0.056-1.025,0.077-1.418
	c-0.349,0.271-0.737,0.626-1.183,1.075c-0.167,0.169-0.409,0.312-0.726,0.423c-0.316,0.115-0.677,0.173-1.081,0.173
	c-0.613,0-1.085-0.096-1.428-0.292c-0.342-0.193-0.581-0.458-0.724-0.799c-0.141-0.34-0.21-0.93-0.21-1.765l0.007-0.647v-1.591
	c0-0.219-0.01-0.516-0.033-0.895c-0.023-0.377-0.042-0.607-0.056-0.695c-0.013-0.086-0.056-0.153-0.125-0.192
	c-0.071-0.039-0.214-0.063-0.425-0.063l-0.685-0.007l-0.076-0.068V64.98l0.062-0.069C113.714,64.787,114.593,64.579,115.307,64.298"
	/>
<path fill="#00549C" d="M125.722,64.298l0.153,0.109c-0.034,0.312-0.058,0.873-0.072,1.682l0.612-0.777
	c0.203-0.254,0.381-0.452,0.537-0.594c0.157-0.14,0.338-0.245,0.542-0.323c0.209-0.078,0.42-0.115,0.641-0.115
	c0.241,0,0.464,0.052,0.677,0.15l0.059,0.115c-0.089,0.725-0.136,1.363-0.146,1.909h-0.366c-0.224-0.499-0.573-0.75-1.058-0.75
	c-0.339,0-0.633,0.109-0.885,0.322c-0.248,0.217-0.417,0.488-0.502,0.811c-0.084,0.326-0.124,0.732-0.124,1.232v0.905
	c0,0.166,0.009,0.569,0.028,1.204c0.021,0.637,0.047,1.004,0.071,1.104c0.024,0.099,0.06,0.166,0.116,0.217
	c0.051,0.049,0.119,0.078,0.202,0.096c0.086,0.013,0.476,0.044,1.167,0.08l0.073,0.066v0.343l-0.073,0.073
	c-0.725-0.044-1.482-0.066-2.276-0.066c-0.63,0-1.284,0.022-1.963,0.066l-0.071-0.073v-0.343l0.071-0.066
	c0.529-0.033,0.828-0.061,0.899-0.073c0.064-0.018,0.125-0.051,0.179-0.103c0.052-0.054,0.086-0.132,0.103-0.237
	c0.023-0.104,0.045-0.458,0.069-1.054c0.025-0.598,0.035-1.048,0.035-1.354v-1.61c0-0.219-0.01-0.516-0.032-0.895
	c-0.024-0.377-0.04-0.607-0.053-0.695c-0.015-0.086-0.055-0.153-0.128-0.192c-0.069-0.039-0.209-0.063-0.423-0.063l-0.688-0.007
	l-0.075-0.068V64.98l0.068-0.069C124.129,64.787,125.008,64.579,125.722,64.298"/>
<path fill="#00549C" d="M129.753,68.347c0-0.647,0.133-1.277,0.404-1.875c0.267-0.604,0.73-1.125,1.393-1.563
	c0.661-0.438,1.45-0.659,2.36-0.659c1.147,0,2.076,0.359,2.797,1.086c0.723,0.719,1.081,1.647,1.081,2.784
	c0,1.245-0.416,2.276-1.239,3.083c-0.828,0.804-1.824,1.211-2.989,1.211c-0.763,0-1.447-0.208-2.047-0.617
	c-0.6-0.414-1.042-0.919-1.328-1.514C129.896,69.691,129.753,69.046,129.753,68.347 M131.298,67.785c0,0.763,0.1,1.444,0.295,2.045
	c0.2,0.604,0.505,1.088,0.937,1.454c0.427,0.363,0.906,0.55,1.454,0.55c0.645,0,1.175-0.255,1.595-0.77
	c0.42-0.506,0.627-1.275,0.627-2.301c0-1.159-0.224-2.112-0.68-2.854c-0.456-0.738-1.111-1.113-1.967-1.113
	c-0.711,0-1.264,0.258-1.66,0.77C131.502,66.079,131.298,66.818,131.298,67.785"/>
<path fill="#00549C" d="M143.847,60.998v-0.34l0.067-0.073c1.042-0.123,1.921-0.323,2.634-0.607l0.153,0.101
	c-0.057,0.628-0.086,1.883-0.086,3.769v5.358c0,0.549,0.007,1.035,0.029,1.445c0.017,0.41,0.053,0.654,0.097,0.732
	c0.055,0.077,0.132,0.14,0.246,0.187c0.107,0.047,0.43,0.098,0.953,0.139l0.072,0.068v0.31l-0.072,0.073
	c-0.59-0.036-1.048-0.06-1.375-0.06c-0.296,0-0.716,0.023-1.261,0.06l-0.088-0.087c0.014-0.541,0.022-0.91,0.022-1.124
	c0-0.027,0.005-0.131,0.012-0.312c-0.302,0.221-0.604,0.461-0.903,0.729c-0.441,0.394-0.732,0.639-0.868,0.734
	c-0.251,0.128-0.606,0.191-1.072,0.191c-0.752,0-1.39-0.186-1.917-0.559c-0.526-0.367-0.901-0.842-1.125-1.417
	c-0.223-0.577-0.335-1.167-0.335-1.77c0-0.618,0.115-1.209,0.347-1.781c0.232-0.569,0.561-0.984,0.989-1.246
	c0.43-0.264,0.896-0.534,1.402-0.817c0.504-0.281,1.005-0.42,1.497-0.42c0.695,0,1.354,0.173,1.985,0.516l-0.035-1.825
	c-0.009-0.635-0.03-1.071-0.051-1.32c-0.023-0.246-0.049-0.392-0.081-0.441c-0.035-0.049-0.089-0.08-0.166-0.103
	c-0.082-0.024-0.411-0.035-0.998-0.035L143.847,60.998z M145.251,66.195c-0.339-0.381-0.715-0.673-1.126-0.875
	c-0.414-0.202-0.824-0.302-1.241-0.302c-0.461,0-0.887,0.124-1.279,0.372c-0.396,0.248-0.682,0.617-0.855,1.103
	c-0.177,0.491-0.262,1.021-0.262,1.594c0,0.953,0.241,1.72,0.721,2.299c0.483,0.578,1.091,0.866,1.821,0.866
	c0.399,0,0.751-0.092,1.062-0.272c0.306-0.187,0.561-0.43,0.762-0.738c0.195-0.316,0.311-0.625,0.344-0.937
	c0.032-0.308,0.053-0.879,0.053-1.709V66.195z"/>
<path fill="#00549C" d="M155.811,70.891l-0.267,0.586c-0.566,0.369-1.072,0.605-1.516,0.717c-0.445,0.109-0.841,0.162-1.191,0.162
	c-0.65,0-1.271-0.128-1.858-0.383c-0.588-0.259-1.065-0.691-1.434-1.305c-0.37-0.611-0.552-1.344-0.552-2.205
	c0-0.577,0.074-1.089,0.213-1.55c0.142-0.464,0.291-0.807,0.445-1.027c0.158-0.224,0.419-0.476,0.791-0.747
	c0.372-0.271,0.762-0.486,1.177-0.653c0.417-0.16,0.862-0.244,1.345-0.244c0.654,0,1.227,0.155,1.726,0.46
	c0.502,0.31,0.851,0.703,1.053,1.185c0.205,0.478,0.302,0.989,0.302,1.529c0,0.167-0.008,0.332-0.026,0.492l-0.088,0.086
	c-0.374,0.085-0.872,0.137-1.498,0.167c-0.629,0.024-1.039,0.037-1.243,0.037h-2.627c0.01,1.133,0.294,1.963,0.853,2.497
	c0.557,0.532,1.238,0.804,2.042,0.804c0.382,0,0.751-0.067,1.098-0.196c0.356-0.134,0.726-0.316,1.119-0.55L155.811,70.891z
	 M150.563,67.544c0.1,0.016,0.477,0.038,1.133,0.061c0.659,0.02,1.145,0.03,1.461,0.03c0.758,0,1.217-0.014,1.383-0.041
	c0.003-0.129,0.007-0.231,0.007-0.302c0-0.848-0.173-1.472-0.516-1.883c-0.342-0.414-0.812-0.619-1.405-0.619
	c-0.65,0-1.155,0.23-1.52,0.694C150.746,65.949,150.563,66.634,150.563,67.544"/>
<path fill="#00549C" d="M160.774,72.239l-0.509-1.284l-0.604-1.397l-1.677-3.902c-0.11-0.255-0.207-0.425-0.29-0.507
	c-0.084-0.084-0.173-0.131-0.257-0.145c-0.09-0.02-0.261-0.034-0.528-0.046l-0.062-0.059v-0.356l0.075-0.072
	c0.761,0.034,1.368,0.062,1.814,0.062c0.63,0,1.267-0.027,1.902-0.062l0.067,0.065v0.363l-0.067,0.059
	c-0.563,0.018-0.891,0.06-0.987,0.123c-0.095,0.061-0.138,0.143-0.138,0.238c0,0.165,0.107,0.519,0.325,1.055l1,2.488l0.784,1.858
	l0.82-1.858l0.679-1.685c0.262-0.638,0.431-1.088,0.507-1.356c0.076-0.271,0.113-0.449,0.113-0.536c0-0.099-0.057-0.173-0.182-0.224
	c-0.117-0.044-0.422-0.081-0.907-0.104l-0.064-0.059v-0.356l0.074-0.072c0.675,0.034,1.182,0.062,1.519,0.062
	c0.284,0,0.771-0.027,1.458-0.062l0.073,0.072v0.356l-0.066,0.059c-0.319,0.032-0.537,0.076-0.642,0.141
	c-0.104,0.067-0.211,0.189-0.311,0.383c-0.099,0.188-0.39,0.773-0.873,1.753l-0.782,1.676c-0.133,0.281-0.605,1.394-1.418,3.329
	H160.774z"/>
<path fill="#00549C" d="M170.495,60.595l0.065-0.059c0.945,0.043,1.59,0.066,1.931,0.066l3.83-0.083c1.09,0,1.984,0.104,2.683,0.307
	c0.699,0.207,1.317,0.556,1.859,1.065c0.544,0.504,0.956,1.088,1.239,1.76c0.28,0.665,0.418,1.381,0.418,2.138
	c0,0.735-0.129,1.464-0.383,2.184c-0.258,0.718-0.623,1.366-1.092,1.933c-0.472,0.571-1.009,1.031-1.612,1.38
	c-0.603,0.35-1.206,0.579-1.813,0.698c-0.603,0.119-1.221,0.177-1.853,0.177c-0.428,0-1.23-0.014-2.406-0.047
	c-0.387-0.011-0.646-0.02-0.77-0.02c-0.375,0-0.832,0.022-1.365,0.066l-0.066-0.066v-0.27l0.066-0.08
	c0.32-0.164,0.504-0.27,0.552-0.309c0.042-0.041,0.083-0.521,0.114-1.433c0.031-0.911,0.044-1.607,0.044-2.089v-3.002l-0.007-1.855
	c0-0.402-0.006-0.735-0.019-0.988c-0.012-0.251-0.029-0.435-0.055-0.541c-0.031-0.112-0.06-0.186-0.096-0.234
	c-0.034-0.041-0.093-0.081-0.168-0.107c-0.082-0.032-0.218-0.055-0.409-0.079l-0.621-0.047l-0.065-0.062V60.595z M173.521,71.268
	c0.56,0.108,1.201,0.163,1.924,0.163c1.27,0,2.285-0.214,3.046-0.639c0.761-0.426,1.328-1.054,1.707-1.888
	c0.375-0.834,0.563-1.774,0.563-2.822c0-1.542-0.412-2.744-1.236-3.592c-0.821-0.852-2.12-1.278-3.893-1.278
	c-0.732,0-1.436,0.058-2.111,0.166c-0.045,0.896-0.062,1.903-0.062,3.025v2.567l0.014,2.408
	C173.472,69.851,173.485,70.479,173.521,71.268"/>
<path fill="#00549C" d="M186.265,64.298l0.158,0.105c-0.063,0.714-0.091,1.621-0.091,2.727v1.846c0,0.122,0.01,0.508,0.033,1.158
	c0.021,0.653,0.044,1.032,0.068,1.145c0.025,0.107,0.062,0.186,0.111,0.233c0.047,0.054,0.11,0.082,0.18,0.096
	c0.069,0.013,0.365,0.036,0.883,0.069l0.073,0.066v0.343l-0.065,0.073c-0.681-0.044-1.34-0.066-1.973-0.066
	c-0.625,0-1.279,0.022-1.961,0.066l-0.072-0.073v-0.343l0.072-0.066c0.525-0.033,0.828-0.061,0.895-0.073
	c0.07-0.018,0.129-0.051,0.18-0.103c0.052-0.054,0.088-0.132,0.107-0.237c0.021-0.104,0.041-0.458,0.065-1.054
	c0.022-0.598,0.038-1.048,0.038-1.354v-1.61c0-0.219-0.01-0.516-0.032-0.895c-0.024-0.377-0.04-0.607-0.056-0.695
	c-0.013-0.086-0.057-0.153-0.126-0.192c-0.071-0.039-0.213-0.063-0.427-0.063l-0.685-0.007l-0.073-0.068v-0.35l0.062-0.064
	C184.672,64.787,185.551,64.579,186.265,64.298 M185.57,60.643c0.257,0,0.475,0.088,0.654,0.271c0.18,0.18,0.271,0.396,0.271,0.654
	c0,0.248-0.091,0.462-0.271,0.641c-0.18,0.183-0.397,0.274-0.654,0.274c-0.252,0-0.469-0.089-0.648-0.268
	c-0.184-0.176-0.275-0.396-0.275-0.647c0-0.258,0.092-0.475,0.275-0.654C185.102,60.73,185.318,60.643,185.57,60.643"/>
<path fill="#00549C" d="M188.918,69.691h0.349l0.073,0.073c0.012,0.456,0.04,0.848,0.08,1.178c0.171,0.254,0.466,0.461,0.878,0.623
	c0.415,0.163,0.823,0.241,1.227,0.241c0.579,0,1.042-0.156,1.39-0.465c0.344-0.312,0.518-0.685,0.518-1.115
	c0-0.23-0.062-0.438-0.187-0.607c-0.126-0.173-0.317-0.316-0.571-0.428c-0.256-0.107-0.705-0.24-1.361-0.393
	c-0.562-0.132-0.953-0.234-1.178-0.31c-0.225-0.074-0.438-0.196-0.646-0.369c-0.207-0.177-0.365-0.391-0.475-0.644
	c-0.108-0.254-0.162-0.532-0.162-0.838c0-0.729,0.29-1.315,0.873-1.756c0.576-0.438,1.301-0.658,2.169-0.658
	c0.364,0,0.762,0.05,1.196,0.148c0.43,0.105,0.76,0.2,0.979,0.294l0.073,0.117c-0.044,0.217-0.069,0.786-0.081,1.713l-0.073,0.073
	h-0.327l-0.075-0.073c-0.021-0.328-0.05-0.563-0.087-0.699c-0.039-0.132-0.137-0.275-0.294-0.433
	c-0.159-0.153-0.384-0.283-0.675-0.391c-0.285-0.104-0.59-0.163-0.914-0.163c-0.332,0-0.61,0.056-0.84,0.148
	c-0.226,0.1-0.408,0.253-0.548,0.449c-0.137,0.201-0.206,0.437-0.206,0.723c0,0.21,0.04,0.394,0.125,0.56
	c0.083,0.16,0.213,0.294,0.39,0.393c0.174,0.102,0.357,0.173,0.548,0.218l0.891,0.23c0.766,0.184,1.31,0.346,1.642,0.48
	c0.332,0.136,0.583,0.344,0.763,0.622c0.184,0.271,0.269,0.605,0.269,1c0,0.751-0.308,1.397-0.93,1.936
	c-0.623,0.543-1.419,0.812-2.397,0.812c-0.343,0-0.771-0.039-1.282-0.116c-0.507-0.074-0.944-0.159-1.303-0.254l-0.038-0.105
	l0.082-0.546c0.025-0.169,0.043-0.34,0.047-0.515c0.007-0.173,0.01-0.533,0.02-1.081L188.918,69.691z"/>
<path fill="#00549C" d="M195.746,68.347c0-0.647,0.132-1.277,0.4-1.875c0.27-0.604,0.73-1.125,1.393-1.563
	c0.663-0.438,1.455-0.659,2.365-0.659c1.143,0,2.072,0.359,2.794,1.086c0.722,0.719,1.081,1.647,1.081,2.784
	c0,1.245-0.412,2.276-1.238,3.083c-0.828,0.804-1.822,1.211-2.99,1.211c-0.764,0-1.446-0.208-2.047-0.617
	c-0.599-0.414-1.041-0.919-1.328-1.514C195.891,69.691,195.746,69.046,195.746,68.347 M197.293,67.785
	c0,0.763,0.096,1.444,0.292,2.045c0.199,0.604,0.508,1.088,0.935,1.454c0.426,0.363,0.91,0.55,1.457,0.55
	c0.645,0,1.174-0.255,1.594-0.77c0.42-0.506,0.629-1.275,0.629-2.301c0-1.159-0.226-2.112-0.682-2.854
	c-0.456-0.738-1.111-1.113-1.967-1.113c-0.711,0-1.263,0.258-1.66,0.77C197.494,66.079,197.293,66.818,197.293,67.785"/>
<path fill="#00549C" d="M207.479,64.298l0.154,0.109c-0.033,0.312-0.057,0.873-0.072,1.682l0.613-0.777
	c0.201-0.254,0.379-0.452,0.535-0.594c0.156-0.14,0.338-0.245,0.543-0.323c0.209-0.078,0.421-0.115,0.641-0.115
	c0.24,0,0.464,0.052,0.675,0.15l0.061,0.115c-0.089,0.725-0.136,1.363-0.146,1.909h-0.368c-0.221-0.499-0.57-0.75-1.059-0.75
	c-0.336,0-0.63,0.109-0.881,0.322c-0.252,0.217-0.422,0.488-0.506,0.811c-0.085,0.326-0.123,0.732-0.123,1.232v0.905
	c0,0.166,0.012,0.569,0.031,1.204c0.02,0.637,0.047,1.004,0.068,1.104c0.023,0.099,0.062,0.166,0.116,0.217
	c0.052,0.049,0.119,0.078,0.204,0.096c0.082,0.013,0.473,0.044,1.167,0.08l0.073,0.066v0.343l-0.073,0.073
	c-0.726-0.044-1.484-0.066-2.272-0.066c-0.631,0-1.287,0.022-1.967,0.066l-0.074-0.073v-0.343l0.074-0.066
	c0.528-0.033,0.826-0.061,0.896-0.073c0.068-0.018,0.126-0.051,0.18-0.103c0.051-0.054,0.084-0.132,0.104-0.237
	c0.025-0.104,0.044-0.458,0.068-1.054c0.025-0.598,0.034-1.048,0.034-1.354v-1.61c0-0.219-0.009-0.516-0.03-0.895
	c-0.024-0.377-0.04-0.607-0.052-0.695c-0.016-0.086-0.058-0.153-0.13-0.192c-0.069-0.039-0.209-0.063-0.423-0.063l-0.69-0.007
	l-0.072-0.068V64.98l0.067-0.069C205.885,64.787,206.765,64.579,207.479,64.298"/>
<path fill="#00549C" d="M216.459,60.998v-0.34l0.068-0.073c1.039-0.123,1.919-0.323,2.633-0.607l0.154,0.101
	c-0.057,0.628-0.088,1.883-0.088,3.769v5.358c0,0.549,0.006,1.035,0.031,1.445c0.017,0.41,0.051,0.654,0.096,0.732
	c0.053,0.077,0.133,0.14,0.244,0.187c0.11,0.047,0.431,0.098,0.953,0.139l0.072,0.068v0.31l-0.072,0.073
	c-0.59-0.036-1.051-0.06-1.372-0.06c-0.3,0-0.718,0.023-1.263,0.06l-0.089-0.087c0.015-0.541,0.024-0.91,0.024-1.124
	c0-0.027,0.003-0.131,0.008-0.312c-0.301,0.221-0.603,0.461-0.9,0.729c-0.441,0.394-0.732,0.639-0.868,0.734
	c-0.251,0.128-0.606,0.191-1.069,0.191c-0.756,0-1.391-0.186-1.918-0.559c-0.526-0.367-0.901-0.842-1.126-1.417
	c-0.225-0.577-0.335-1.167-0.335-1.77c0-0.618,0.114-1.209,0.346-1.781c0.232-0.569,0.563-0.984,0.99-1.246
	c0.43-0.264,0.895-0.534,1.401-0.817c0.506-0.281,1.004-0.42,1.497-0.42c0.696,0,1.354,0.173,1.982,0.516l-0.032-1.825
	c-0.011-0.635-0.028-1.071-0.052-1.32c-0.021-0.246-0.048-0.392-0.079-0.441c-0.034-0.049-0.09-0.08-0.166-0.103
	c-0.081-0.024-0.413-0.035-0.999-0.035L216.459,60.998z M217.859,66.195c-0.337-0.381-0.711-0.673-1.124-0.875
	c-0.412-0.202-0.825-0.302-1.239-0.302c-0.46,0-0.888,0.124-1.282,0.372c-0.394,0.248-0.681,0.617-0.854,1.103
	c-0.177,0.491-0.259,1.021-0.259,1.594c0,0.953,0.236,1.72,0.719,2.299c0.482,0.578,1.088,0.866,1.822,0.866
	c0.397,0,0.75-0.092,1.059-0.272c0.309-0.187,0.562-0.43,0.764-0.738c0.197-0.316,0.311-0.625,0.344-0.937
	c0.033-0.308,0.051-0.879,0.051-1.709V66.195z"/>
<path fill="#00549C" d="M225.717,60.592l0.064-0.055c0.998,0.042,1.777,0.062,2.334,0.062c0.613,0,1.445-0.018,2.494-0.054
	c0.387-0.011,0.668-0.018,0.842-0.018c1.38,0,2.314,0.255,2.808,0.752c0.49,0.498,0.734,1.096,0.734,1.784
	c0,0.457-0.12,0.905-0.359,1.347c-0.239,0.444-0.596,0.82-1.063,1.136c-0.469,0.311-1.114,0.548-1.939,0.708
	c0.152,0.214,0.428,0.581,0.825,1.102l1.161,1.537c0.376,0.508,0.779,1.044,1.213,1.611c0.43,0.56,0.706,0.881,0.832,0.955
	c0.125,0.071,0.234,0.119,0.327,0.137c0.085,0.013,0.231,0.02,0.429,0.02l0.062,0.067v0.389l-0.074,0.073
	c-0.26-0.033-0.568-0.053-0.93-0.053c-0.388,0-0.81,0.02-1.271,0.053c-0.374-0.462-0.966-1.255-1.773-2.381
	c-0.938-1.311-1.897-2.526-2.88-3.642l0.08-0.254c0.285,0.018,0.505,0.024,0.662,0.024c0.947,0,1.687-0.228,2.219-0.679
	c0.534-0.455,0.803-1.078,0.803-1.882c0-0.719-0.239-1.264-0.721-1.631c-0.479-0.37-1.131-0.553-1.947-0.553
	c-0.574,0-1.11,0.083-1.617,0.241c-0.082,0.115-0.12,1.14-0.12,3.066v3.789l0.005,1.593c0.003,0.614,0.021,1.015,0.049,1.194
	c0.025,0.18,0.066,0.302,0.115,0.359c0.054,0.058,0.152,0.111,0.299,0.149c0.149,0.044,0.514,0.073,1.088,0.099l0.068,0.046v0.409
	l-0.068,0.066c-0.023,0-0.506-0.014-1.436-0.047c-0.387-0.013-0.692-0.02-0.908-0.02c-0.17,0-0.951,0.022-2.342,0.066l-0.064-0.066
	v-0.409l0.064-0.046c0.508-0.025,0.846-0.052,1.017-0.082c0.169-0.033,0.283-0.075,0.337-0.128c0.062-0.052,0.104-0.164,0.141-0.334
	c0.036-0.17,0.056-0.542,0.062-1.126l0.006-1.725v-3.789l-0.018-1.594c-0.004-0.625-0.02-1.024-0.043-1.204
	c-0.025-0.184-0.062-0.299-0.114-0.359c-0.051-0.061-0.15-0.109-0.298-0.15c-0.146-0.036-0.513-0.064-1.09-0.087l-0.064-0.062
	V60.592z"/>
<path fill="#00549C" d="M243.799,70.891l-0.264,0.586c-0.569,0.369-1.073,0.605-1.52,0.717c-0.442,0.109-0.841,0.162-1.189,0.162
	c-0.651,0-1.273-0.128-1.859-0.383c-0.588-0.259-1.062-0.691-1.434-1.305c-0.368-0.611-0.553-1.344-0.553-2.205
	c0-0.577,0.074-1.089,0.214-1.55c0.142-0.464,0.29-0.807,0.443-1.027c0.16-0.224,0.421-0.476,0.793-0.747
	c0.373-0.271,0.761-0.486,1.177-0.653c0.416-0.16,0.861-0.244,1.343-0.244c0.656,0,1.229,0.155,1.729,0.46
	c0.5,0.31,0.852,0.703,1.051,1.185c0.203,0.478,0.302,0.989,0.302,1.529c0,0.167-0.006,0.332-0.022,0.492l-0.089,0.086
	c-0.372,0.085-0.874,0.137-1.5,0.167c-0.628,0.024-1.04,0.037-1.242,0.037h-2.626c0.012,1.133,0.293,1.963,0.852,2.497
	c0.559,0.532,1.238,0.804,2.045,0.804c0.381,0,0.748-0.067,1.098-0.196c0.354-0.134,0.725-0.316,1.119-0.55L243.799,70.891z
	 M238.553,67.544c0.098,0.016,0.479,0.038,1.132,0.061c0.66,0.02,1.143,0.03,1.46,0.03c0.761,0,1.22-0.014,1.386-0.041
	c0.004-0.129,0.007-0.231,0.007-0.302c0-0.848-0.173-1.472-0.516-1.883c-0.343-0.414-0.812-0.619-1.406-0.619
	c-0.649,0-1.154,0.23-1.519,0.694C238.735,65.949,238.553,66.634,238.553,67.544"/>
<path fill="#00549C" d="M245.418,69.691h0.348l0.076,0.073c0.009,0.456,0.04,0.848,0.078,1.178c0.17,0.254,0.465,0.461,0.877,0.623
	c0.416,0.163,0.824,0.241,1.229,0.241c0.577,0,1.041-0.156,1.385-0.465c0.349-0.312,0.521-0.685,0.521-1.115
	c0-0.23-0.062-0.438-0.188-0.607c-0.125-0.173-0.316-0.316-0.572-0.428c-0.252-0.107-0.705-0.24-1.359-0.393
	c-0.563-0.132-0.953-0.234-1.177-0.31c-0.227-0.074-0.438-0.196-0.649-0.369c-0.205-0.177-0.363-0.391-0.474-0.644
	c-0.106-0.254-0.163-0.532-0.163-0.838c0-0.729,0.292-1.315,0.873-1.756c0.578-0.438,1.301-0.658,2.17-0.658
	c0.366,0,0.762,0.05,1.197,0.148c0.429,0.105,0.756,0.2,0.977,0.294l0.075,0.117c-0.045,0.217-0.069,0.786-0.081,1.713l-0.073,0.073
	h-0.327l-0.073-0.073c-0.022-0.328-0.054-0.563-0.089-0.699c-0.043-0.132-0.137-0.275-0.295-0.433
	c-0.158-0.153-0.383-0.283-0.673-0.391c-0.286-0.104-0.593-0.163-0.916-0.163c-0.333,0-0.611,0.056-0.839,0.148
	c-0.225,0.1-0.409,0.253-0.549,0.449c-0.137,0.201-0.206,0.437-0.206,0.723c0,0.21,0.04,0.394,0.126,0.56
	c0.084,0.16,0.213,0.294,0.389,0.393c0.174,0.102,0.357,0.173,0.55,0.218l0.888,0.23c0.766,0.184,1.311,0.346,1.643,0.48
	c0.332,0.136,0.584,0.344,0.766,0.622c0.177,0.271,0.267,0.605,0.267,1c0,0.751-0.308,1.397-0.93,1.936
	c-0.623,0.543-1.422,0.812-2.399,0.812c-0.343,0-0.769-0.039-1.279-0.116c-0.507-0.074-0.948-0.159-1.302-0.254l-0.043-0.105
	l0.082-0.546c0.025-0.169,0.044-0.34,0.047-0.515c0.01-0.173,0.012-0.533,0.021-1.081L245.418,69.691z"/>
<rect id="_x3C_Slice_x3E__1_" fill="none" width="382" height="91"/>
</svg>
