<?xml version="1.0" encoding="UTF-8" standalone="no"?>
<svg width="51px" height="44px" viewBox="0 0 51 44" version="1.1" xmlns="http://www.w3.org/2000/svg" xmlns:xlink="http://www.w3.org/1999/xlink">
    <!-- Generator: Sketch 41.1 (35376) - http://www.bohemiancoding.com/sketch -->
    <title>Group</title>
    <desc>Created with Sketch.</desc>
    <defs></defs>
    <g id="入居者対応---トップ" stroke="none" stroke-width="1" fill="none" fill-rule="evenodd">
        <g id="ManualTop" transform="translate(-377.000000, -461.000000)" fill="#283250">
            <g id="Article" transform="translate(280.000000, 300.000000)">
                <g id="ルームエアコンの無料アイコン素材-3" transform="translate(97.000000, 161.000000)">
                    <g id="_x31_0">
                        <g id="Group">
                            <path d="M30.5979919,30.0300982 C31.2095128,30.012125 31.823385,29.9986696 32.431477,29.9764732 C32.4264806,29.9726429 32.4218761,29.9688125 32.4164878,29.9648839 C32.4249131,29.9644911 32.4329466,29.9644911 32.44098,29.9641964 C31.3854647,29.1531429 30.3384727,28.3213661 29.3128378,27.4677857 C25.9290952,27.5748393 24.2307089,27.5748393 20.8473581,27.4677857 C19.9461436,28.2086161 19.0296459,28.9248929 18.1061925,29.6307589 C17.9684484,29.7328036 17.8271775,29.8452589 17.6898253,29.9442589 C17.6958994,29.9446518 17.7021694,29.9446518 17.7082434,29.9449464 C17.7017775,29.9495625 17.6956055,29.9549643 17.6891395,29.9599732 C21.9947681,30.1689732 26.2943227,30.1839018 30.5979919,30.0300982 Z" id="Shape"></path>
                            <path d="M35.1225806,32.7378661 C31.7729311,32.9511875 28.4273963,33.0578482 25.0822533,33.0578482 C21.7241784,33.0578482 18.3703162,32.9511875 15.0038161,32.7336429 C13.9823939,33.4725089 12.9483337,34.1861339 11.9081995,34.8889554 C11.5488502,35.1272232 11.1937134,35.3707946 10.8297595,35.6021875 C10.8362255,35.6029732 10.8427894,35.6033661 10.8492553,35.6037589 C10.8423975,35.6086696 10.8354417,35.6133839 10.82829,35.618 C19.4594348,36.3840714 28.0210219,36.4482054 36.6391369,35.8285714 C37.5262439,35.7686607 38.4137428,35.7085536 39.2977148,35.6355804 C39.2920327,35.63175 39.2866444,35.6283125 39.2808642,35.6244821 C39.2892895,35.6236964 39.2977148,35.6233036 39.3061402,35.6225179 C37.8932348,34.6880089 36.4971802,33.7323839 35.1225806,32.7378661 Z" id="Shape"></path>
                            <path d="M49.9265405,41.2652232 C48.1205845,40.2516518 46.3285402,39.2154911 44.5623595,38.1477054 C38.0336241,38.9199643 31.5558323,39.3082054 25.0822533,39.3082054 C18.599955,39.3082054 12.1179506,38.9199643 5.5850025,38.1477054 C3.82274062,39.2153929 2.03716219,40.2512589 0.233459531,41.2652232 C-0.14499375,41.4778571 -0.0417346875,42.0525089 0.387270469,42.1161518 C16.9865077,44.5834911 33.1734923,44.5873214 49.7723377,42.1165446 C50.2017347,42.0529018 50.3049937,41.4778571 49.9265405,41.2652232 Z" id="Shape"></path>
                            <path d="M3.6444375,21.4660089 L46.5156605,21.4660089 L47.1608827,19.9267946 C48.4314394,16.89325 49.1015456,13.4239286 49.1015456,9.89391071 C49.1015456,7.18152679 48.7215248,4.54928571 47.9610914,2.07251786 C47.5910634,0.854071429 46.4808816,0.0318214286 45.2053284,0.0318214286 L4.95976594,0.0318214286 C3.68421281,0.0318214286 2.57403094,0.853973214 2.19900656,2.07251786 C1.4436675,4.54928571 1.05855234,7.18152679 1.05855234,9.89391071 C1.05855234,13.4239286 1.72865859,16.89325 2.99921531,19.9267946 L3.6444375,21.4660089 Z M46.5906066,9.23479464 L46.4253333,9.25198214 C46.2247912,9.27349107 46.0169995,9.295 45.8046033,9.31454464 C43.1058581,9.5693125 39.9754627,9.76927679 36.5010009,9.90923214 C32.8623436,10.0527232 29.0186377,10.1255982 25.076865,10.1255982 C21.1390111,10.1255982 17.2948153,10.0527232 13.6535128,9.90923214 C10.1798348,9.76917857 7.050615,9.56891964 4.34922469,9.31385714 C4.14094312,9.295 3.93667828,9.27358929 3.73613625,9.25198214 L3.56929547,9.23440179 C3.62445187,6.95897321 3.98448703,4.78902679 4.58954203,2.80941964 C4.63931016,2.64903571 4.78930031,2.53854464 4.95966797,2.53854464 L45.2052305,2.53854464 C45.3702098,2.53854464 45.5202,2.64913393 45.570262,2.80941964 C46.175415,4.789125 46.5355481,6.95897321 46.5906066,9.23479464 Z M3.66158203,11.7642054 C3.81313969,11.7803125 3.96508922,11.7960268 4.11850828,11.8102679 C6.86055563,12.0692589 10.0349391,12.2721696 13.5545644,12.4141875 C14.6777761,12.4582857 15.8249902,12.4939375 16.9830788,12.5246786 L17.2321153,13.4634107 L32.9292563,13.4634107 L33.1787827,12.5246786 C34.33452,12.4935446 35.4794808,12.4582857 36.6004392,12.4141875 C40.1200645,12.2721696 43.2960155,12.0692589 46.0353197,11.8106607 C46.1826647,11.7972054 46.3276584,11.7818839 46.4719664,11.7668571 L46.5301598,11.7630268 C46.3400025,14.36875 45.7548352,16.8091786 44.8550902,18.9591875 L41.8601855,18.9591875 L41.2298545,18.95575 L41.6522958,17.0781875 L41.7494808,16.6635268 L41.745758,16.6635268 L41.7494808,16.6477143 L8.41541766,16.6477143 L8.84099391,18.5564107 L8.92750031,18.9592857 L5.30451797,18.9592857 C4.686825,17.4830268 4.23029063,15.8620982 3.93520875,14.1525804 C3.80814328,13.3712857 3.70674563,12.5786964 3.66158203,11.7642054 Z M39.8732813,18.1554018 L39.6938025,18.9590893 L39.6088636,19.3350536 L10.5511364,19.3350536 L10.4661975,18.9590893 L10.286033,18.1519643 L34.4831386,18.1519643 L39.8732813,18.1554018 Z" id="Shape"></path>
                            <polygon id="Shape" points="20.6446608 6.97704464 20.6446608 6.96133036 17.2322133 7.17769643 17.2322133 7.74783036 20.6446608 7.96419643 20.6446608 7.03646429 20.6458364 6.97704464"></polygon>
                            <polygon id="Shape" points="29.5326797 6.96133036 29.5326797 6.96250893 29.5169067 6.96133036 29.5169067 7.96419643 32.9293542 7.74783036 32.9293542 7.17769643 29.7435084 6.97586607"></polygon>
                            <polygon id="Shape" points="22.9515309 6.77521429 22.9515309 6.77521429 22.9358559 6.77521429 22.9358559 8.15060714 27.2257116 8.15060714 27.2257116 6.77521429 22.9645608 6.77521429"></polygon>
                        </g>
                    </g>
                </g>
            </g>
        </g>
    </g>
</svg>