<?xml version="1.0" encoding="UTF-8" standalone="no"?>
<svg width="50px" height="37px" viewBox="0 0 50 37" version="1.1" xmlns="http://www.w3.org/2000/svg" xmlns:xlink="http://www.w3.org/1999/xlink">
    <!-- Generator: Sketch 41.1 (35376) - http://www.bohemiancoding.com/sketch -->
    <title>Group</title>
    <desc>Created with Sketch.</desc>
    <defs></defs>
    <g id="入居者対応---トップ" stroke="none" stroke-width="1" fill="none" fill-rule="evenodd">
        <g id="ManualTop" transform="translate(-377.000000, -572.000000)" fill="#283250">
            <g id="Article" transform="translate(280.000000, 300.000000)">
                <g id="バスルームのバスタブの無料アイコン素材-1" transform="translate(97.000000, 272.000000)">
                    <g id="_x31_0">
                        <g id="Group">
                            <path d="M12.3599609,10.3617517 C12.3599609,10.0997859 12.4885742,9.85526506 12.7043945,9.70368734 C15.022168,8.07771592 18.4322266,6.18105617 19.7166016,5.8486319 C20.0454102,5.76460512 20.3689453,5.7006401 20.6992188,5.6536355 C20.7026367,5.65324784 20.7056641,5.6524725 20.7091797,5.65218175 L20.7976563,6.47219392 L23.7708984,6.47219392 L24.0447266,3.96030698 C24.0611328,3.81047376 24.0082031,3.66122205 23.9005859,3.55490444 C23.8289063,3.48376758 23.7384766,3.43608457 23.6388672,3.41786423 C23.3242188,3.36029571 22.5776367,3.23885909 21.8978516,3.23885909 C20.996875,3.23885909 20.065625,3.36116796 19.1310547,3.60268437 C17.8661133,3.92638613 14.7537109,5.57619906 12.6327148,6.93041607 C12.5152344,7.00581726 12.3599609,6.92091823 12.3599609,6.7820366 L12.3599609,6.18386675 L8.78603516,6.18386675 L8.78603516,11.9602957 L12.3600586,11.9602957 L12.3600586,10.3617517 L12.3599609,10.3617517 Z" id="Shape"></path>
                            <path d="M12.3599609,3.32463036 C12.3599609,2.27744546 13.1881836,1.41469302 14.2421875,1.36361792 L17.8180664,1.18945862 C18.1194336,1.17501803 18.3563477,0.928268121 18.3563477,0.628795528 C18.3563477,0.308098179 18.0858398,0.0521411828 17.762793,0.0680355211 L11.5708008,0.369058781 C10.0114258,0.444750721 8.78613281,1.72172512 8.78613281,3.27132618 L8.78613281,3.72218265 L8.78613281,4.53608907 L12.3601562,4.53608907 L12.3601562,3.32463036 L12.3599609,3.32463036 Z" id="Shape"></path>
                            <path d="M47.4918945,13.3070501 L2.51542969,13.3070501 C1.12490234,13.3070501 0,14.4235305 0,15.7958709 C0,16.9898846 0.843457031,17.9825054 1.96835937,18.2305152 L3.56220703,26.2317639 C4.26523438,29.7821132 7.15488281,32.4488731 10.6773438,32.9459588 L10.6773438,34.5318067 C10.6773438,35.5486567 11.5082031,36.3732239 12.5328125,36.3732239 C13.5578125,36.3732239 14.3882813,35.5486567 14.3882813,34.5318067 L14.3882813,33.0394834 L35.6155273,33.0394834 L35.6155273,34.5318067 C35.6155273,35.5486567 36.4463867,36.3732239 37.4709961,36.3732239 L37.4709961,36.3732239 C38.4956055,36.3732239 39.3264648,35.5486567 39.3264648,34.5318067 L39.3264648,32.9463465 L39.3279297,32.9463465 C42.8435547,32.4499391 45.7339844,29.7828886 46.4450195,26.2317639 L48.0387695,18.2305152 C49.1561523,17.9826023 50,16.9898846 50,15.7958709 C50,14.4235305 48.874707,13.3070501 47.4918945,13.3070501 Z M30.8376953,17.9677741 L23.8358398,28.387482 L11.8980469,28.387482 C10.0780273,28.387482 8.50751953,27.1002344 8.15615234,25.3327646 L6.69511719,17.9591485 L22.2275391,17.9591485 L30.8376953,17.9677741 Z M29.0291016,28.3787595 L36.030957,17.9590516 L42.1348633,17.9590516 L43.3117188,17.962056 L41.843457,25.3326677 C41.4920898,27.1002344 39.921582,28.3873851 38.1092773,28.3873851 L32.2395508,28.3873851 L29.0291016,28.3787595 Z" id="Shape"></path>
                        </g>
                    </g>
                </g>
            </g>
        </g>
    </g>
</svg>