<?xml version="1.0" encoding="UTF-8" standalone="no"?>
<svg width="29px" height="50px" viewBox="0 0 29 50" version="1.1" xmlns="http://www.w3.org/2000/svg" xmlns:xlink="http://www.w3.org/1999/xlink">
    <!-- Generator: Sketch 41.1 (35376) - http://www.bohemiancoding.com/sketch -->
    <title>Layer_1 hover</title>
    <desc>Created with Sketch.</desc>
    <defs></defs>
    <g id="入居者対応---トップ" stroke="none" stroke-width="1" fill="none" fill-rule="evenodd">
        <g id="ManualTop" transform="translate(-1015.000000, -677.000000)" fill="#AA7322">
            <g id="Article" transform="translate(280.000000, 300.000000)">
                <g id="door" transform="translate(735.416667, 377.000000)">
                    <g id="Layer_1-hover">
                        <path d="M27.5726919,0 L0.998736638,0 C0.451409135,0 0.00758017493,0.445996094 0.00758017493,0.995996094 L0.00758017493,49.0040039 C0.00758017493,49.5540039 0.451409135,50 0.998736638,50 L27.5727891,50 C28.1201166,50 28.5639456,49.5540039 28.5638484,49.0040039 L28.5638484,0.995996094 C28.5638484,0.445996094 28.1200194,0 27.5726919,0 Z M26.5815355,48.0080078 L1.9898931,48.0080078 L1.9898931,1.99199219 L26.5814383,1.99199219 L26.5814383,48.0080078 L26.5815355,48.0080078 Z" id="Shape"></path>
                        <path d="M12.0060253,4.58164062 L5.46423712,4.58164062 C4.91690962,4.58164062 4.47308066,5.02763672 4.47308066,5.57763672 L4.47308066,24.8057617 C4.47308066,25.3557617 4.91690962,25.8017578 5.46423712,25.8017578 L12.0060253,25.8017578 C12.5533528,25.8017578 12.9971817,25.3557617 12.9971817,24.8057617 L12.9971817,5.57773437 C12.9972789,5.02773437 12.5533528,4.58164062 12.0060253,4.58164062 Z M11.0148688,23.8097656 L6.45549077,23.8097656 L6.45549077,6.57373047 L11.0148688,6.57373047 L11.0148688,23.8097656 Z" id="Shape"></path>
                        <path d="M23.1071914,4.58164062 L16.5654033,4.58164062 C16.0180758,4.58164062 15.5742468,5.02763672 15.5742468,5.57763672 L15.5742468,24.8057617 C15.5742468,25.3557617 16.0180758,25.8017578 16.5654033,25.8017578 L23.1071914,25.8017578 C23.654519,25.8017578 24.0983479,25.3557617 24.0983479,24.8057617 L24.0983479,5.57773437 C24.0984451,5.02773437 23.654519,4.58164062 23.1071914,4.58164062 Z M22.116035,23.8097656 L17.5566569,23.8097656 L17.5566569,6.57373047 L22.116035,6.57373047 L22.116035,23.8097656 Z" id="Shape"></path>
                        <path d="M6.30680272,27.6942383 C4.91311953,27.6942383 3.77930029,28.8335937 3.77930029,30.234082 C3.77930029,31.6345703 4.91311953,32.7739258 6.30680272,32.7739258 C7.70048591,32.7739258 8.83430515,31.6345703 8.83430515,30.234082 C8.83430515,28.8335937 7.70048591,27.6942383 6.30680272,27.6942383 Z M6.30680272,30.7818359 C6.00631681,30.7818359 5.76161322,30.5360352 5.76161322,30.2339844 C5.76161322,29.9319336 6.00621963,29.6861328 6.30680272,29.6861328 C6.60738581,29.6861328 6.85199223,29.9319336 6.85199223,30.2339844 C6.85199223,30.5360352 6.60728863,30.7818359 6.30680272,30.7818359 Z" id="Shape"></path>
                        <path d="M23.1071914,36.1603516 C22.5598639,36.1603516 22.116035,36.6063477 22.116035,37.1563477 L22.116035,45.1245117 C22.116035,45.6745117 22.5598639,46.1205078 23.1071914,46.1205078 C23.654519,46.1205078 24.0983479,45.6745117 24.0983479,45.1245117 L24.0983479,37.1563477 C24.0984451,36.6063477 23.654519,36.1603516 23.1071914,36.1603516 Z" id="Shape"></path>
                        <path d="M23.1071914,32.574707 C22.5598639,32.574707 22.116035,33.0207031 22.116035,33.5707031 L22.116035,34.06875 C22.116035,34.61875 22.5598639,35.0647461 23.1071914,35.0647461 C23.654519,35.0647461 24.0983479,34.61875 24.0983479,34.06875 L24.0983479,33.5707031 C24.0984451,33.0207031 23.654519,32.574707 23.1071914,32.574707 Z" id="Shape"></path>
                    </g>
                </g>
            </g>
        </g>
    </g>
</svg>