<?xml version="1.0" encoding="UTF-8" standalone="no"?>
<svg width="46px" height="26px" viewBox="0 0 46 26" version="1.1" xmlns="http://www.w3.org/2000/svg" xmlns:xlink="http://www.w3.org/1999/xlink">
    <!-- Generator: Sketch 41.1 (35376) - http://www.bohemiancoding.com/sketch -->
    <title>Group 2 hover</title>
    <desc>Created with Sketch.</desc>
    <defs>
        <polygon id="path-1" points="6.85105936 25.9565593 0 25.9565593 0 7.31141949e-06 13.7021187 7.3114195e-06 13.7021187 25.9565593 6.85105936 25.9565593"></polygon>
        <polygon id="path-3" points="6.85105936 25.9565593 0 25.9565593 0 7.31141949e-06 13.7021187 7.3114195e-06 13.7021187 25.9565593 6.85105936 25.9565593"></polygon>
        <polygon id="path-5" points="6.85105936 25.9565593 0 25.9565593 0 7.31141949e-06 13.7021187 7.3114195e-06 13.7021187 25.9565593 6.85105936 25.9565593"></polygon>
    </defs>
    <g id="入居者対応---トップ" stroke="none" stroke-width="1" fill="none" fill-rule="evenodd">
        <g id="ManualTop" transform="translate(-379.000000, -689.000000)">
            <g id="Article" transform="translate(280.000000, 300.000000)">
                <g id="Group-2-hover" transform="translate(99.080000, 389.000000)">
                    <g id="Page-1">
                        <mask id="mask-2" fill="white">
                            <use xlink:href="#path-1"></use>
                        </mask>
                        <g id="Clip-2"></g>
                        <path d="M6.8510571,25.2912354 C5.14194519,25.2912354 3.75642212,24.005823 3.75642212,20.7689381 C3.75642212,17.5320531 6.22292737,13.4433345 6.8510571,13.569423 C7.50348314,13.7004354 9.94564684,17.5320531 9.94564684,20.7689381 C9.94564684,24.005823 8.56016901,25.2912354 6.8510571,25.2912354 M6.8510571,0.00630442478 C5.4604214,-0.272746903 -4.52445244e-06,8.77898053 -4.52445244e-06,15.9449027 C-4.52445244e-06,23.1108708 3.06734801,25.9565593 6.8510571,25.9565593 C10.6348114,25.9565593 13.7021187,23.1108708 13.7021187,15.9449027 C13.7021187,8.77898053 8.29557903,0.296215929 6.8510571,0.00630442478" id="Fill-1" fill="#AA7322" mask="url(#mask-2)"></path>
                    </g>
                    <g id="Page-1-Copy-11" transform="translate(16.000000, 0.000000)">
                        <mask id="mask-4" fill="white">
                            <use xlink:href="#path-3"></use>
                        </mask>
                        <g id="Clip-2"></g>
                        <path d="M6.8510571,25.2912354 C5.14194519,25.2912354 3.75642212,24.005823 3.75642212,20.7689381 C3.75642212,17.5320531 6.22292737,13.4433345 6.8510571,13.569423 C7.50348314,13.7004354 9.94564684,17.5320531 9.94564684,20.7689381 C9.94564684,24.005823 8.56016901,25.2912354 6.8510571,25.2912354 M6.8510571,0.00630442478 C5.4604214,-0.272746903 -4.52445244e-06,8.77898053 -4.52445244e-06,15.9449027 C-4.52445244e-06,23.1108708 3.06734801,25.9565593 6.8510571,25.9565593 C10.6348114,25.9565593 13.7021187,23.1108708 13.7021187,15.9449027 C13.7021187,8.77898053 8.29557903,0.296215929 6.8510571,0.00630442478" id="Fill-1" fill="#AA7322" mask="url(#mask-4)"></path>
                    </g>
                    <g id="Page-1-Copy-12" transform="translate(32.000000, 0.000000)">
                        <mask id="mask-6" fill="white">
                            <use xlink:href="#path-5"></use>
                        </mask>
                        <g id="Clip-2"></g>
                        <path d="M6.8510571,25.2912354 C5.14194519,25.2912354 3.75642212,24.005823 3.75642212,20.7689381 C3.75642212,17.5320531 6.22292737,13.4433345 6.8510571,13.569423 C7.50348314,13.7004354 9.94564684,17.5320531 9.94564684,20.7689381 C9.94564684,24.005823 8.56016901,25.2912354 6.8510571,25.2912354 M6.8510571,0.00630442478 C5.4604214,-0.272746903 -4.52445244e-06,8.77898053 -4.52445244e-06,15.9449027 C-4.52445244e-06,23.1108708 3.06734801,25.9565593 6.8510571,25.9565593 C10.6348114,25.9565593 13.7021187,23.1108708 13.7021187,15.9449027 C13.7021187,8.77898053 8.29557903,0.296215929 6.8510571,0.00630442478" id="Fill-1" fill="#AA7322" mask="url(#mask-6)"></path>
                    </g>
                </g>
            </g>
        </g>
    </g>
</svg>