<?xml version="1.0" encoding="UTF-8" standalone="no"?>
<svg width="51px" height="51px" viewBox="0 0 51 51" version="1.1" xmlns="http://www.w3.org/2000/svg" xmlns:xlink="http://www.w3.org/1999/xlink">
    <!-- Generator: Sketch 41.1 (35376) - http://www.bohemiancoding.com/sketch -->
    <title>Group hover</title>
    <desc>Created with Sketch.</desc>
    <defs></defs>
    <g id="入居者対応---トップ" stroke="none" stroke-width="1" fill="none" fill-rule="evenodd">
        <g id="ManualTop" transform="translate(-377.000000, -788.000000)" fill="#AA7322">
            <g id="Article" transform="translate(280.000000, 300.000000)">
                <g id="鍵のフリーアイコン素材-6" transform="translate(97.080000, 488.000000)">
                    <g id="_x31_0">
                        <g id="Group-hover">
                            <path d="M29.1045817,30.3856406 C28.72251,30.7105664 28.3196215,30.9944531 27.9042829,31.2512461 C27.8564741,31.2782402 27.8118526,31.3116094 27.7641434,31.337707 L27.7668327,31.3403965 C27.7614542,31.343584 27.7564741,31.3471699 27.7510956,31.3503574 L40.3049801,43.9056211 L41.5498008,43.6997285 L42.2810757,43.5897598 L42.2721116,43.5807949 L42.2946215,43.5767109 L29.1045817,30.3856406 Z" id="Shape"></path>
                            <path d="M48.9049801,39.074168 L46.8468127,37.0158398 L46.0510956,36.2200605 L44.9449203,36.0150645 L44.4569721,35.924918 L44.3664343,35.4369316 L43.9131474,32.9879355 L41.8216135,32.6004551 L41.850498,32.3246367 L42.0315737,30.6055781 L40.8091633,29.3834707 L33.7806773,22.3544355 C34.5151394,18.2633789 33.4427291,13.9448145 30.7722112,10.6372852 L30.6513944,10.4876719 L30.5153386,10.3516055 L21.7394422,1.57512305 C21.6538845,1.48955859 21.5538845,1.4290957 21.4641434,1.35030469 C21.3646414,1.26244922 21.2619522,1.17907617 21.1568725,1.09928906 C20.9712151,0.959138672 20.7815737,0.832136719 20.5833665,0.718582031 C20.4707171,0.653736328 20.3562749,0.593671875 20.2395418,0.537890625 C20.0336653,0.438779297 19.8263944,0.353214844 19.6118526,0.281496094 C19.4978088,0.243146484 19.3820717,0.209378906 19.2649402,0.178699219 C19.0296813,0.117041016 18.7946215,0.0715195313 18.5547809,0.0417363281 C18.4578685,0.0295839844 18.3610558,0.0206191406 18.2628486,0.0138457031 C18.0028884,-0.00468164062 17.7451195,-0.00468164062 17.4851594,0.0138457031 C17.3873506,0.0206191406 17.2901394,0.0295839844 17.1936255,0.0417363281 C16.9535857,0.0715195313 16.7183267,0.117041016 16.4835657,0.178699219 C16.3664343,0.209378906 16.2505976,0.243146484 16.1361554,0.281496094 C15.9221116,0.353115234 15.7153386,0.438679688 15.5098606,0.536994141 C15.3922311,0.593771484 15.276494,0.654134766 15.1634462,0.718980469 C14.9664343,0.832136719 14.7781873,0.958242188 14.5939243,1.09749609 C14.4871514,1.17857813 14.3830677,1.2633457 14.2816733,1.35209766 C14.1929283,1.43049023 14.0938247,1.49045508 14.0086653,1.57512305 L1.5999004,13.984957 C-0.531374502,16.1167969 -0.531374502,19.5850957 1.5999004,21.7168359 L10.3734064,30.4910273 L10.5090637,30.6266953 L10.6581673,30.7470234 C11.2939243,31.261207 11.9765936,31.6968984 12.6790837,32.0911523 C12.7033865,32.1050977 12.7276892,32.1191426 12.7520916,32.1325898 C14.548506,33.1279863 16.522012,33.7259414 18.5405378,33.9062344 C18.5698207,33.9089238 18.5987052,33.9116133 18.627988,33.9144023 C19.0262948,33.9472734 19.4242032,33.9653027 19.8242032,33.9657012 L19.8336653,33.9657012 C19.8399402,33.9657012 19.8463147,33.9653027 19.8525896,33.9653027 C20.6960159,33.9639082 21.5404382,33.9089238 22.3752988,33.7589121 L38.2976096,49.6824668 L39.6150398,51 L41.4533865,50.694498 L46.8391434,49.7987109 L49.8020916,49.3056445 L49.8664343,46.3024219 L49.9651394,41.713916 L49.9984064,40.1677793 L48.9049801,39.074168 Z M46.2448207,46.2249258 L40.8591633,47.1208125 L23.4670319,29.7268242 C19.9931275,30.9889746 15.9605578,30.3747832 12.9353586,27.9292734 L4.16185259,19.155082 C3.44143426,18.4345078 3.44143426,17.2670859 4.16185259,16.5469102 L16.5701195,4.137375 C17.2906375,3.41680078 18.4579681,3.41680078 19.1780876,4.137375 L27.9538845,12.9133594 C30.3978088,15.9404883 31.0114542,19.9725762 29.7489044,23.4458555 L38.24751,31.9452246 L37.8676295,35.5527773 L40.8044821,36.0966445 L41.3483068,39.0337266 L44.2851594,39.5775937 L46.3433267,41.6359219 L46.2448207,46.2249258 Z" id="Shape"></path>
                            <path d="M15.874004,10.8292109 C15.4044821,10.3596523 14.6358566,10.3596523 14.1663347,10.8292109 L11.8530876,13.1426387 C11.3835657,13.6125957 11.3835657,14.3808828 11.8530876,14.8504414 L15.0944223,18.0921289 C15.5639442,18.5616875 16.3321713,18.5616875 16.8021912,18.0921289 L19.1154382,15.7787012 C19.5849602,15.3091426 19.5849602,14.540457 19.1154382,14.0708984 L15.874004,10.8292109 Z" id="Shape"></path>
                        </g>
                    </g>
                </g>
            </g>
        </g>
    </g>
</svg>