<?xml version="1.0" encoding="UTF-8" standalone="no"?>
<svg width="38px" height="54px" viewBox="0 0 38 54" version="1.1" xmlns="http://www.w3.org/2000/svg" xmlns:xlink="http://www.w3.org/1999/xlink">
    <!-- Generator: Sketch 41.1 (35376) - http://www.bohemiancoding.com/sketch -->
    <title>Group hover</title>
    <desc>Created with Sketch.</desc>
    <defs></defs>
    <g id="入居者対応---トップ" stroke="none" stroke-width="1" fill="none" fill-rule="evenodd">
        <g id="ManualTop" transform="translate(-1011.000000, -566.000000)" fill="#AA7322">
            <g id="Article" transform="translate(280.000000, 300.000000)">
                <g id="大型冷蔵庫の無料アイコン素材-1" transform="translate(731.307692, 266.000000)">
                    <g id="_x31_0">
                        <g id="Group-hover">
                            <path d="M34.2263546,0 L3.15826076,0 C1.42948631,0 0.0337940026,1.39376953 0.0337940026,3.12039844 L0.0337940026,47.3266758 C0.0337940026,49.0480313 1.4293807,50.4470742 3.15826076,50.4470742 L34.2263546,50.4470742 C35.9552347,50.4470742 37.3508214,49.0479258 37.3508214,47.3266758 L37.3508214,3.12039844 C37.3508214,1.39376953 35.9552347,0 34.2263546,0 Z M34.2263546,43.5977227 L3.15826076,43.5977227 L3.15826076,34.673168 L11.4227953,34.673168 L12.8702347,36.8056406 L25.2121213,36.8056406 L26.6596662,34.673168 L34.226249,34.673168 L34.226249,43.5873867 L34.226249,43.5977227 L34.2263546,43.5977227 Z M3.15826076,29.4257812 L3.15826076,3.12039844 L23.0093859,3.12039844 L23.0093859,29.4257812 L3.15826076,29.4257812 Z M34.2263546,31.5058359 L34.2263546,32.5931133 L3.15826076,32.5931133 L3.15826076,31.5058359 L34.2263546,31.5058359 Z M34.2263546,29.3622891 L34.2263546,29.4257812 L24.5716193,29.4257812 L24.5716193,3.12039844 L34.2263546,3.12039844 L34.2263546,29.3622891 L34.2263546,29.3622891 Z" id="Shape"></path>
                            <path d="M3.41192699,51.4864688 L3.41192699,51.4864688 L3.39502999,51.4864688 L3.39502999,53.4800391 C3.39502999,53.767125 3.62852542,54 3.91609126,54 L5.99885789,54 C6.28642373,54 6.51949674,53.7672305 6.51949674,53.4800391 L6.51949674,51.4864688 L3.42143155,51.4864688 L3.41192699,51.4864688 Z" id="Shape"></path>
                            <path d="M30.8815932,51.4864688 L30.8815932,51.4864688 L30.8651186,51.4864688 L30.8651186,53.4800391 C30.8651186,53.767125 31.098086,54 31.3857575,54 L33.4685241,54 C33.7564068,54 33.9895854,53.7672305 33.9895854,53.4800391 L33.9895854,51.4864688 L30.8915202,51.4864688 L30.8815932,51.4864688 Z" id="Shape"></path>
                            <path d="M12.6149844,5.49713672 L6.12146675,5.49713672 C5.84541199,5.49713672 5.62152673,5.72094141 5.62152673,5.99642578 L5.62152673,12.4820156 C5.62152673,12.7728984 5.97055541,12.9186562 6.17342503,12.7159453 L12.849219,6.04842187 C13.0527223,5.84571094 12.9066688,5.49713672 12.6149844,5.49713672 Z" id="Shape"></path>
                        </g>
                    </g>
                </g>
            </g>
        </g>
    </g>
</svg>