<?xml version="1.0" encoding="UTF-8" standalone="no"?>
<svg width="34px" height="54px" viewBox="0 0 34 54" version="1.1" xmlns="http://www.w3.org/2000/svg" xmlns:xlink="http://www.w3.org/1999/xlink">
    <!-- Generator: Sketch 41.1 (35376) - http://www.bohemiancoding.com/sketch -->
    <title>Group</title>
    <desc>Created with Sketch.</desc>
    <defs></defs>
    <g id="入居者対応---トップ" stroke="none" stroke-width="1" fill="none" fill-rule="evenodd">
        <g id="ManualTop" transform="translate(-698.000000, -456.000000)" fill="#283250">
            <g id="Article" transform="translate(280.000000, 300.000000)">
                <g id="豆電球の無料アイコン素材-6" transform="translate(418.000000, 156.000000)">
                    <g id="_x31_0">
                        <g id="Group">
                            <path d="M19.8616698,16.0925263 C19.5769443,16 19.2767208,16.0973684 19.0962934,16.3408421 C18.9879113,16.4871579 18.8791104,16.6714737 18.7526123,16.8848421 C18.3162566,17.6228421 17.7186368,18.6332632 16.8190132,18.6332632 C15.7887028,18.6332632 14.9001792,17.3450526 14.4228792,16.6525263 C14.3394198,16.532 14.2666415,16.426 14.2036019,16.3408421 C14.0231745,16.0973684 13.7216943,16 13.4382255,16.0925263 C13.1208283,16.1961053 12.9195623,16.5192632 12.9489877,16.8783158 L14.9075094,27.1389474 L15.8658792,26.9818947 L15.890383,26.9777895 L15.9019019,26.9753684 L14.9885604,22.1974737 L14.568017,19.9684211 L14.2179481,18.0326316 C14.8359877,18.7887368 15.7018925,19.5696842 16.8190132,19.5696842 C17.6825094,19.5696842 18.3202358,19.1025263 18.8029811,18.5487368 C18.8630887,18.4825263 18.9224632,18.4048421 18.981733,18.3324211 C19.0291698,18.2806316 19.0716849,18.2308421 19.126033,18.1777895 L17.769634,26.758 L17.7361245,26.9705263 L17.7357057,26.9726316 L17.7357057,26.9726316 L17.7348679,26.9778947 L17.7348679,26.9778947 L17.7332972,26.9894737 L18.7329255,27.1255789 L20.347033,16.9109474 L20.351117,16.8785263 C20.3807519,16.5193684 20.179067,16.1961053 19.8616698,16.0925263 Z" id="Shape"></path>
                            <path d="M28.3891925,4.88778947 C25.2533377,1.73557895 21.0843453,0 16.6502094,0 C12.2156547,0 8.04666226,1.73557895 4.91122642,4.88694737 C1.77495283,8.04 0.0483792453,12.2303158 0.0483792453,16.6875789 C0.0483792453,21.1456842 1.7753717,25.3364211 4.91122642,28.4886316 L4.93363585,28.5111579 L4.95698774,28.5333684 C5.41711415,28.9803158 5.92069811,29.4132632 6.44103679,29.8203158 L6.76660189,33.3981053 L7.13593868,37.4597895 L6.93352075,37.5054737 C6.26019057,37.6572632 5.83681981,38.3286316 5.98771698,39.0058947 L6.0945283,39.4849474 C6.23160283,40.1004211 6.79927358,40.4845263 7.40715566,40.4392632 L7.61899811,42.7694737 L6.93352075,42.9241053 C6.26019057,43.0757895 5.83681981,43.7472632 5.98771698,44.4236842 L6.0945283,44.9031579 C6.24553019,45.58 6.91341509,46.0063158 7.58716415,45.8545263 L7.87230849,45.79 L7.89314717,45.7867368 L7.92215377,46.1012632 L8.23515283,49.5453684 L10.7151651,49.5453684 C11.5222189,52.0654737 13.8770943,53.8948421 16.6496858,53.8948421 C19.4422783,53.8948421 21.7881481,52.0864211 22.5874528,49.5453684 L25.0642189,49.5453684 L25.3776368,46.1012632 L25.772734,41.7578947 L26.3658509,41.6242105 C27.0396,41.4724211 27.4633896,40.8006316 27.3123877,40.1237895 L27.2052623,39.6443158 C27.0801255,39.0834737 26.5965425,38.7163158 26.0521189,38.6862105 L26.2758991,36.2257895 L26.3658509,36.2052632 C27.0396,36.0534737 27.4633896,35.382 27.3123877,34.7048421 L27.2052623,34.2258947 C27.1197085,33.8417895 26.8591726,33.5548421 26.5336075,33.392 L26.8584396,29.8208421 C27.3787783,29.4133684 27.8823623,28.9811579 28.3429075,28.5338947 L28.3661547,28.5112632 L28.3886689,28.4887368 C31.5245236,25.3365263 33.251516,21.1457895 33.251516,16.6876842 C33.251516,12.2302105 31.5248377,8.03989474 28.3891925,4.88778947 Z M21.0438198,29.012 L21.0438198,30.6036842 L12.2664425,30.6036842 L12.2561802,30.6036842 L12.2561802,29.012 C11.2564472,28.5678947 9.14126887,27.3289474 7.57616887,25.8088421 C5.25365094,23.4746316 3.81745755,20.2501053 3.81745755,16.6875789 C3.81745755,13.1258947 5.25365094,9.90136842 7.57616887,7.56673684 C9.89837264,5.23242105 13.1061679,3.78873684 16.6502094,3.78873684 C20.1934132,3.78873684 23.4016274,5.23242105 25.7237264,7.56673684 C28.0463491,9.90136842 29.4821236,13.1258947 29.4821236,16.6875789 C29.4821236,20.2501053 28.0463491,23.4746316 25.7237264,25.8088421 C24.1587311,27.3289474 22.043134,28.5677895 21.0438198,29.012 Z M22.19445,39.486 L12.5417434,41.6604211 L11.3280736,41.9313684 L11.1189538,39.6402105 L22.411633,37.0962105 L22.19445,39.486 Z M11.675734,45.7561053 L11.6025368,44.9497895 L21.9085726,42.6278947 L21.6243708,45.7561053 L19.112734,45.7561053 L19.112734,47.6303158 L19.112734,47.6385263 L19.112734,47.6385263 C19.112734,47.6586316 19.1103255,47.6795789 19.1099066,47.7006316 C19.0718943,49.0353684 17.9867123,50.1056842 16.6498953,50.1056842 C15.2898311,50.1056842 14.1870566,48.9975789 14.1870566,47.6303158 L14.1870566,45.7561053 L11.675734,45.7561053 L11.675734,45.7561053 Z M10.8449094,36.6216842 L10.5200774,33.0534737 L11.9648575,33.0534737 L12.2561802,33.0534737 L21.0438198,33.0534737 L21.3355613,33.0534737 L22.678033,33.0534737 L22.7795038,33.0546316 L22.6976151,33.9543158 L12.21,36.3166316 L10.8449094,36.6216842 Z" id="Shape"></path>
                        </g>
                    </g>
                </g>
            </g>
        </g>
    </g>
</svg>