<?xml version="1.0" encoding="UTF-8" standalone="no"?>
<svg width="51px" height="50px" viewBox="0 0 51 50" version="1.1" xmlns="http://www.w3.org/2000/svg" xmlns:xlink="http://www.w3.org/1999/xlink">
    <!-- Generator: Sketch 41.1 (35376) - http://www.bohemiancoding.com/sketch -->
    <title>Group 3 hover</title>
    <desc>Created with Sketch.</desc>
    <defs>
        <polygon id="path-1" points="50 25.0000175 50 50 0 50 0 25.0000175 0 3.50877193e-05 50 3.50877193e-05"></polygon>
    </defs>
    <g id="入居者対応---トップ" stroke="none" stroke-width="1" fill="none" fill-rule="evenodd">
        <g id="ManualTop" transform="translate(-689.000000, -787.000000)">
            <g id="Article" transform="translate(280.000000, 300.000000)">
                <g id="Page-1" transform="translate(409.650000, 487.000000)">
                    <g id="Group-3-hover">
                        <mask id="mask-2" fill="white">
                            <use xlink:href="#path-1"></use>
                        </mask>
                        <g id="Clip-2"></g>
                        <path d="M41.1440351,37.8202982 L12.1796491,8.85591228 C15.8125439,5.95950877 20.285,4.386 25,4.386 C30.5061404,4.386 35.682807,6.53021053 39.5763158,10.4236316 C43.4698246,14.3171404 45.6140351,19.493807 45.6140351,25.0000351 C45.6140351,29.7149474 44.0405263,34.1874035 41.1440351,37.8202982 L41.1440351,37.8202982 Z M16.0922807,43.6008246 C17.9849123,42.9784561 19.3555263,41.1954737 19.3555263,39.0972281 C19.3555263,36.483193 17.2289474,34.356614 14.6148246,34.356614 C12.0314912,34.356614 9.9254386,36.4341579 9.87666667,39.0062632 C9.44526316,38.5413509 9.0372807,38.0600351 8.65394737,37.5633684 C9.33719298,34.9094211 11.7507018,32.9425789 14.615,32.9425789 C18.0085965,32.9425789 20.7694737,35.7037193 20.7694737,39.0972281 C20.7694737,39.5302105 20.7210526,39.9717895 20.625614,40.4079298 L25.449386,40.4080175 C26.265,40.4080175 26.9509649,39.8505614 27.1515789,39.0972281 L28.1645614,39.0972281 C28.5675439,39.0972281 28.8971053,38.7677544 28.8971053,38.3650351 L28.8971053,36.6808246 C28.8971053,36.2780175 28.5675439,35.9484561 28.1645614,35.9484561 L27.2127193,35.9484561 L27.2127193,33.1929298 L23.4047368,29.3850351 L21.4242105,29.2236316 C20.4657895,29.1455614 19.625614,28.5536316 19.2291228,27.6779298 L15.6796491,21.731 C15.6564912,21.6800351 15.6302632,21.631 15.602807,21.5831053 L14.9504386,20.9306491 C14.6879825,20.7797719 14.3868421,20.6949474 14.0727193,20.6949474 L4.83508772,20.6949474 C5.48333333,17.6281053 6.82368421,14.7594211 8.77798246,12.2771404 L37.7228947,41.2220526 C34.1076316,44.0690702 29.6727193,45.6140702 25,45.6140702 C21.8650877,45.6140702 18.8374561,44.9180175 16.0922807,43.6008246 L16.0922807,43.6008246 Z M14.6149123,41.1361754 C13.4907895,41.1361754 12.5761404,40.2214386 12.5761404,39.0972281 C12.5761404,37.9730175 13.4907895,37.0582807 14.6149123,37.0582807 C15.7391228,37.0582807 16.6537719,37.9730175 16.6537719,39.0972281 C16.6537719,40.2214386 15.7391228,41.1361754 14.6149123,41.1361754 L14.6149123,41.1361754 Z M5.44359649,29.6738947 C5.22350877,29.6738947 5.02210526,29.5915263 4.86710526,29.4569649 C4.7404386,28.8790702 4.63868421,28.2938947 4.56175439,27.7029298 L4.56175439,23.5936316 C4.56175439,23.1086316 4.95859649,22.7119649 5.44359649,22.7119649 L12.7829825,22.7119649 C13.2679825,22.7119649 13.8412281,23.0671404 14.057193,23.5015263 L16.8424561,28.8841579 C17.0584211,29.3186316 16.8382456,29.6738947 16.3530702,29.6738947 L5.44359649,29.6738947 Z M25,3.50877193e-05 C11.1928947,3.50877193e-05 0,11.1928421 0,25.0000351 C0,27.1860877 0.281403509,29.3060877 0.808508772,31.3271404 C1.68298246,34.6799474 3.23552632,37.758807 5.31166667,40.4080175 C9.88807018,46.2474035 17.0057018,50.0000351 25,50.0000351 C38.8071053,50.0000351 50,38.8071404 50,25.0000351 C50,11.1928421 38.8071053,3.50877193e-05 25,3.50877193e-05 L25,3.50877193e-05 Z" id="Fill-1" fill="#AA7322" mask="url(#mask-2)"></path>
                        <polygon id="Fill-4-Copy" fill="#AA7322" mask="url(#mask-2)" points="31.1768421 16.5024035 33.617193 7.96942105 29.8275439 12.8652982 27.1714035 10.8037193 24.9499123 19.5062632 28.7397368 14.610386"></polygon>
                        <polygon id="Fill-6-Copy" fill="#AA7322" mask="url(#mask-2)" points="42.7755789 19.7132018 37.2662807 21.3525877 36.376193 18.3614474 29.9918947 23.7187281 35.5011053 22.0793421 36.3177719 24.8242544"></polygon>
                    </g>
                </g>
            </g>
        </g>
    </g>
</svg>