<?xml version="1.0" encoding="UTF-8" standalone="no"?>
<svg width="40px" height="39px" viewBox="0 0 40 39" version="1.1" xmlns="http://www.w3.org/2000/svg" xmlns:xlink="http://www.w3.org/1999/xlink">
    <!-- Generator: Sketch 41.1 (35376) - http://www.bohemiancoding.com/sketch -->
    <title>Group</title>
    <desc>Created with Sketch.</desc>
    <defs></defs>
    <g id="入居者対応---トップ" stroke="none" stroke-width="1" fill="none" fill-rule="evenodd">
        <g id="ManualTop" transform="translate(-1010.000000, -792.000000)" fill="#283250">
            <g id="Article" transform="translate(280.000000, 300.000000)">
                <g id="コメント･感想のフリーアイコン-14" transform="translate(730.000000, 492.000000)">
                    <g id="_x31_0">
                        <g id="Group">
                            <path d="M33.8592188,4.8781173 C30.1220312,1.77230427 25.1998437,0.0618734365 20,0.0618734365 C14.8004688,0.0618734365 9.87859375,1.77230427 6.14109375,4.8781173 C2.18109375,8.16908367 0,12.6110516 0,17.3852682 C0,22.159874 2.18109375,26.6015306 6.14109375,29.892497 C9.60117188,32.7679385 14.07625,34.4470045 18.8474219,34.6804892 L23.2553906,38.1097563 C24.0158594,38.7014065 24.9405469,39.0078162 25.875,39.0078162 C26.4129688,39.0078162 26.9544531,38.9062503 27.4695313,38.698916 C28.8788281,38.1313147 29.8773438,36.8575002 30.0885156,35.3577504 L30.5453906,32.1144927 C36.3626563,28.9905457 40,23.4297193 40,17.3852682 C40,12.6110516 37.8192188,8.16908367 33.8592188,4.8781173 Z M35.0546094,21.2204874 C34.9563281,21.4871268 34.8489063,21.750731 34.7310938,22.0097434 C34.6789063,22.1237617 34.6182031,22.2349782 34.5623438,22.3475178 C34.479375,22.5153155 34.39875,22.6843584 34.3075,22.8485759 C34.2314844,22.9860206 34.1460938,23.1191068 34.0642188,23.2537497 C33.98,23.3927509 33.8994531,23.5334643 33.809375,23.6696637 C33.7294531,23.79092 33.640625,23.9079737 33.5560938,24.0268952 C33.4508594,24.1749245 33.3485938,24.3248216 33.2365625,24.4689595 C33.1725,24.5513018 33.1020313,24.6300639 33.0357813,24.7115501 C32.8908594,24.8891541 32.7464844,25.0672251 32.5914844,25.2387585 C32.5634375,25.2697341 32.5322656,25.2993088 32.5038281,25.3299731 C30.9682031,26.9953414 28.9644531,28.3473733 26.6524219,29.2448105 L26.1348438,32.9191587 L25.86875,34.7644659 L20.3386719,30.4623552 C20.2257031,30.4644566 20.11375,30.4696711 19.9999219,30.4696711 C11.3045313,30.4696711 4.2553125,24.6115408 4.2553125,17.3853461 C4.2553125,10.1592291 11.3045313,4.30078755 19.9999219,4.30078755 C28.695625,4.30078755 35.7448438,10.1592291 35.7448438,17.3853461 C35.7448438,18.6962846 35.5125781,19.9616159 35.0807813,21.1551895 C35.0729688,21.1773705 35.0628906,21.1986176 35.0546094,21.2204874 Z" id="Shape"></path>
                            <path d="M12.0592969,15.7825517 C10.8822656,15.7825517 9.92796875,16.7332234 9.92796875,17.9058612 C9.92796875,19.0787325 10.8821875,20.0294042 12.0592969,20.0294042 C13.2366406,20.0294042 14.1910156,19.0788103 14.1910156,17.9058612 C14.1910156,16.7332234 13.2367188,15.7825517 12.0592969,15.7825517 Z" id="Shape"></path>
                            <path d="M20,15.7825517 C18.8229688,15.7825517 17.8685938,16.7332234 17.8685938,17.9058612 C17.8685938,19.0787325 18.8228906,20.0294042 20,20.0294042 C21.1773438,20.0294042 22.1316406,19.0788103 22.1316406,17.9058612 C22.1316406,16.7332234 21.1773438,15.7825517 20,15.7825517 Z" id="Shape"></path>
                            <path d="M27.9410156,15.7825517 C26.7636719,15.7825517 25.8092969,16.7332234 25.8092969,17.9058612 C25.8092969,19.0787325 26.7635937,20.0294042 27.9410156,20.0294042 C29.1180469,20.0294042 30.0723437,19.0788103 30.0723437,17.9058612 C30.0723437,16.7332234 29.1180469,15.7825517 27.9410156,15.7825517 Z" id="Shape"></path>
                        </g>
                    </g>
                </g>
            </g>
        </g>
    </g>
</svg>