<?xml version="1.0" encoding="UTF-8" standalone="no"?>
<svg width="39px" height="50px" viewBox="0 0 39 50" version="1.1" xmlns="http://www.w3.org/2000/svg" xmlns:xlink="http://www.w3.org/1999/xlink">
    <!-- Generator: Sketch 41.1 (35376) - http://www.bohemiancoding.com/sketch -->
    <title>Group hover</title>
    <desc>Created with Sketch.</desc>
    <defs></defs>
    <g id="入居者対応---トップ" stroke="none" stroke-width="1" fill="none" fill-rule="evenodd">
        <g id="ManualTop" transform="translate(-695.000000, -566.000000)" fill="#AA7322">
            <g id="Article" transform="translate(280.000000, 300.000000)">
                <g id="トイレのフリーアイコン素材-3" transform="translate(415.620149, 266.000000)">
                    <g id="_x31_0">
                        <g id="Group-hover">
                            <path d="M37.8804714,1.65292969 C37.6460935,1.05292969 37.1932607,0.580273437 36.6031412,0.321582031 L36.3304124,0.203027344 C36.0250609,0.0686523437 35.7027186,0 35.3712496,0 C34.4182036,0 33.555064,0.568066406 33.1727193,1.44726562 L27.4439575,14.6427734 L25.1251314,19.9680664 L25.1319277,19.9680664 L25.1251314,19.9836914 L30.6901005,19.9836914 L37.846004,3.50107422 C38.1027128,2.90908203 38.1148492,2.25292969 37.8804714,1.65292969 Z" id="Shape"></path>
                            <path d="M37.3130711,28.5220703 L37.3130711,28.5064453 L19.8396874,28.5064453 L0.0119422023,28.5064453 C0.0119422023,35.8074219 8.1144837,41.7258789 13.9111122,41.7258789 L16.4829577,41.7258789 C18.1824398,41.7258789 19.5868622,42.9961914 19.8091037,44.644043 C19.8693973,45.0899414 19.9157097,45.5378906 19.9926058,45.9811523 L20.6907878,50 L34.6833594,50 C36.1359389,50 37.3131682,48.815918 37.3131682,47.3548828 L37.3131682,28.5796875 L37.3131682,28.5220703 L37.3130711,28.5220703 Z" id="Shape"></path>
                            <polygon id="Shape" points="0.0119422023 22.8004883 0.0119422023 25.6291016 0.0119422023 25.637793 0.0119422023 25.637793 0.0119422023 25.653418 37.3130711 25.653418 37.3130711 22.8004883"></polygon>
                        </g>
                    </g>
                </g>
            </g>
        </g>
    </g>
</svg>