<?xml version="1.0" encoding="UTF-8" standalone="no"?>
<svg width="52px" height="42px" viewBox="0 0 52 42" version="1.1" xmlns="http://www.w3.org/2000/svg" xmlns:xlink="http://www.w3.org/1999/xlink">
    <!-- Generator: Sketch 41.1 (35376) - http://www.bohemiancoding.com/sketch -->
    <title>Group</title>
    <desc>Created with Sketch.</desc>
    <defs></defs>
    <g id="入居者対応---トップ" stroke="none" stroke-width="1" fill="none" fill-rule="evenodd">
        <g id="ManualTop" transform="translate(-1004.000000, -464.000000)" fill="#283250">
            <g id="Article" transform="translate(280.000000, 300.000000)">
                <g id="薄型テレビとBlu-rayの無料アイコン素材-1" transform="translate(724.000000, 164.000000)">
                    <g id="_x31_0">
                        <g id="Group">
                            <path d="M0,1.4608871 L0,32.2675403 C0,33.0657258 0.648935673,33.7189516 1.45153996,33.7189516 L50.4391891,33.7189516 C50.9499649,33.7189516 51.3878596,33.4610887 51.6472515,33.0739919 C51.8013255,32.8479839 51.8987368,32.5657258 51.8987368,32.2675403 L51.8987368,1.4608871 C51.8987368,0.662298387 51.2502066,0.0173387097 50.4392904,0.0173387097 L1.45153996,0.0173387097 C0.648935673,0.0173387097 0,0.662298387 0,1.4608871 Z M5.41712281,2.80766129 L16.3759454,2.80766129 L19.6149474,2.81229839 L17.6944951,8.99304435 C17.5321092,9.37227823 17.6782768,9.82389113 18.0512982,10.025504 C18.4484444,10.2511089 18.9512125,10.1058468 19.1701598,9.71078629 L22.1220975,2.80756048 L28.5539805,2.80756048 L30.8774581,2.81340726 C29.4646394,6.43054435 25.6009279,16.4045363 25.6009279,16.4045363 C25.462768,16.7672379 25.6009279,17.1944556 25.9494191,17.4043347 C26.3386589,17.6382056 26.8498402,17.5089718 27.0846004,17.1219758 C27.0846004,17.1219758 32.0558207,6.42862903 33.7343158,2.80745968 L46.4675244,2.80745968 L46.4900273,2.80745968 L46.4900273,29.8881048 L5.41712281,29.8881048 L5.41712281,2.80766129 Z" id="Shape"></path>
                            <path d="M37.0981988,41.9181452 L40.1332554,41.9181452 C40.5062768,41.9181452 40.8087485,41.6173387 40.8087485,41.246371 L40.8087485,39.9647177 L43.5983002,39.9647177 C44.0112593,39.9647177 44.3457622,39.6319556 44.3457622,39.2216734 L44.3457622,34.95625 L44.3457622,34.943246 L44.3457622,34.9271169 L7.5571306,34.9271169 L7.5571306,39.2216734 C7.5571306,39.6319556 7.89173489,39.9647177 8.30469396,39.9647177 L11.0942456,39.9647177 L11.0942456,41.246371 C11.0942456,41.6173387 11.3967173,41.9181452 11.7693333,41.9181452 L14.804694,41.9181452 C15.1777154,41.9181452 15.479883,41.6173387 15.479883,41.246371 L15.479883,39.9647177 L36.3751657,39.9647177 L36.4231111,39.9647177 L36.4231111,41.246371 C36.4231111,41.6173387 36.7252788,41.9181452 37.0981988,41.9181452 Z M39.7028616,37.0325605 C39.962152,37.0325605 40.172078,37.2412298 40.172078,37.4988911 C40.172078,37.756754 39.9622534,37.9655242 39.7028616,37.9655242 C39.4438752,37.9655242 39.2339493,37.7568548 39.2339493,37.4988911 C39.2339493,37.2413306 39.4438752,37.0325605 39.7028616,37.0325605 Z M37.3069084,37.0325605 C37.5657934,37.0325605 37.7757193,37.2412298 37.7757193,37.4988911 C37.7757193,37.756754 37.5658947,37.9655242 37.3069084,37.9655242 C37.047922,37.9655242 36.8379961,37.7568548 36.8379961,37.4988911 C36.8380975,37.2413306 37.047922,37.0325605 37.3069084,37.0325605 Z M25.9512437,38.5214718 C25.383501,38.5214718 24.9230019,38.0639113 24.9230019,37.4988911 C24.9230019,36.9341734 25.383501,36.4762097 25.9512437,36.4762097 C26.5194932,36.4762097 26.9795867,36.9341734 26.9795867,37.4988911 C26.9795867,38.0639113 26.5194932,38.5214718 25.9512437,38.5214718 Z" id="Shape"></path>
                        </g>
                    </g>
                </g>
            </g>
        </g>
    </g>
</svg>