<?xml version="1.0" encoding="UTF-8" standalone="no"?>
<svg width="35px" height="50px" viewBox="0 0 35 50" version="1.1" xmlns="http://www.w3.org/2000/svg" xmlns:xlink="http://www.w3.org/1999/xlink">
    <!-- Generator: Sketch 41.1 (35376) - http://www.bohemiancoding.com/sketch -->
    <title>Group hover</title>
    <desc>Created with Sketch.</desc>
    <defs></defs>
    <g id="入居者対応---トップ" stroke="none" stroke-width="1" fill="none" fill-rule="evenodd">
        <g id="ManualTop" transform="translate(-697.000000, -677.000000)" fill="#AA7322">
            <g id="Article" transform="translate(280.000000, 300.000000)">
                <g id="water-heater" transform="translate(417.150000, 377.000000)">
                    <g id="Capa_1">
                        <g id="Group-hover">
                            <path d="M0.417933131,0 L0.417933131,38.3333333 L0.417933131,48.8058333 C0.417933131,49.4641667 0.955395137,50 1.61572948,50 L33.4914894,50 C34.1518237,50 34.6892857,49.4641667 34.6892857,48.8058333 L34.6892857,38.3333333 L34.6892857,0 L0.417933131,0 Z M33.0167173,48.3333333 L2.08966565,48.3333333 L2.08966565,40 L33.0167173,40 L33.0167173,48.3333333 Z M2.08966565,38.3333333 L2.08966565,1.66666667 L33.0167173,1.66666667 L33.0167173,38.3333333 L2.08966565,38.3333333 Z" id="Shape"></path>
                            <path d="M15.4635258,45 L19.6428571,45 C20.1050912,45 20.4787234,44.6275 20.4787234,44.1666667 C20.4787234,43.7058333 20.1050912,43.3333333 19.6428571,43.3333333 L15.4635258,43.3333333 C15.0012918,43.3333333 14.6276596,43.7058333 14.6276596,44.1666667 C14.6276596,44.6275 15.0012918,45 15.4635258,45 Z" id="Shape"></path>
                            <path d="M4.59726444,36.6666667 L19.6428571,36.6666667 L19.6428571,27.5 L4.59726444,27.5 L4.59726444,36.6666667 Z M6.26899696,29.1666667 L17.9711246,29.1666667 L17.9711246,35 L6.26899696,35 L6.26899696,29.1666667 Z" id="Shape"></path>
                            <path d="M7.10486322,34.1666667 L11.2841945,34.1666667 L11.2841945,30 L7.10486322,30 L7.10486322,34.1666667 Z M8.77659574,31.6666667 L9.61246201,31.6666667 L9.61246201,32.5 L8.77659574,32.5 L8.77659574,31.6666667 Z" id="Shape"></path>
                            <path d="M12.9559271,34.1666667 L17.1352584,34.1666667 L17.1352584,30 L12.9559271,30 L12.9559271,34.1666667 Z M14.6276596,31.6666667 L15.4635258,31.6666667 L15.4635258,32.5 L14.6276596,32.5 L14.6276596,31.6666667 Z" id="Shape"></path>
                            <path d="M26.3297872,28.3333333 C24.025304,28.3333333 22.1504559,30.2025 22.1504559,32.5 C22.1504559,34.7975 24.025304,36.6666667 26.3297872,36.6666667 C28.6342705,36.6666667 30.5091185,34.7975 30.5091185,32.5 C30.5091185,30.2025 28.6342705,28.3333333 26.3297872,28.3333333 Z M26.3297872,35 C24.9472644,35 23.8221884,33.8783333 23.8221884,32.5 C23.8221884,31.1216667 24.9472644,30 26.3297872,30 C26.7159574,30 27.0770517,30.095 27.4038754,30.2508333 L25.7388298,31.9108333 L26.9207447,33.0891667 L28.5857903,31.4291667 C28.7429331,31.755 28.837386,32.115 28.837386,32.5 C28.837386,33.8783333 27.71231,35 26.3297872,35 Z" id="Shape"></path>
                        </g>
                    </g>
                </g>
            </g>
        </g>
    </g>
</svg>