<?xml version="1.0" encoding="UTF-8" standalone="no"?>
<svg width="30px" height="23px" viewBox="0 0 30 23" version="1.1" xmlns="http://www.w3.org/2000/svg" xmlns:xlink="http://www.w3.org/1999/xlink">
    <!-- Generator: Sketch 41.1 (35376) - http://www.bohemiancoding.com/sketch -->
    <title>iconmonstr-book-17</title>
    <desc>Created with Sketch.</desc>
    <defs></defs>
    <g id="Symbols" stroke="none" stroke-width="1" fill="none" fill-rule="evenodd" opacity="0.3">
        <g id="Manual-Menu" transform="translate(-20.000000, -18.000000)" fill="#FFFFFF">
            <g id="iconmonstr-book-17">
                <g transform="translate(20.000000, 18.000000)">
                    <path d="M28.3237279,2.4691358 L28.3237279,19.608642 L27.0922615,19.7530864 L27.0922615,0 C22.2956997,0.14691358 17.8501059,0.940740741 14.7751342,2.85925926 C11.701394,0.940740741 7.26072607,0.14691358 2.46293286,0 L2.46293286,19.7530864 L1.23146643,19.608642 L1.23146643,2.4691358 L0,2.4691358 L0,20.9876543 L11.1533915,20.9876543 C12.9747303,20.9876543 13.1742279,22.2222222 14.7751342,22.2222222 C16.3809665,22.2222222 16.5743067,20.9876543 18.3981085,20.9876543 L29.5551943,20.9876543 L29.5551943,2.4691358 L28.3237279,2.4691358 Z M13.5461307,19.3148148 C11.1496971,18.3617284 8.45155411,17.7481481 4.92586572,17.482716 L4.92586572,2.60493827 C7.82227476,2.84814815 11.078272,3.4382716 13.5461307,4.97777778 L13.5461307,19.3148148 Z M24.6293286,17.482716 C21.1036402,17.7481481 18.4054973,18.3617284 16.0090636,19.3148148 L16.0090636,4.97777778 C18.4769223,3.4382716 21.7329196,2.84814815 24.6293286,2.60493827 L24.6293286,17.482716 L24.6293286,17.482716 Z" id="Shape"></path>
                </g>
            </g>
        </g>
    </g>
</svg>