<?xml version="1.0" encoding="UTF-8" standalone="no"?>
<svg width="20px" height="20px" viewBox="0 0 20 20" version="1.1" xmlns="http://www.w3.org/2000/svg" xmlns:xlink="http://www.w3.org/1999/xlink">
    <!-- Generator: Sketch 41.1 (35376) - http://www.bohemiancoding.com/sketch -->
    <title>Page 1</title>
    <desc>Created with Sketch.</desc>
    <defs></defs>
    <g id="Symbols" stroke="none" stroke-width="1" fill="none" fill-rule="evenodd" opacity="0.5">
        <g id="Manual-Menu" transform="translate(-222.000000, -68.000000)" fill="#FFFFFF">
            <g id="Page-1">
                <path d="M224.94,75.89 C224.94,73.1626667 227.160667,70.9413333 229.889333,70.9413333 C232.618667,70.9413333 234.839333,73.1613333 234.839333,75.89 C234.839333,78.6193333 232.618667,80.8393333 229.889333,80.8393333 C227.160667,80.8393333 224.94,78.6193333 224.94,75.89 L224.94,75.89 Z M241.851333,85.4 L236.557333,80.1046667 C237.332667,78.884 237.78,77.438 237.78,75.8893333 C237.780667,71.54 234.240667,68 229.89,68 C225.539333,68 222,71.54 222,75.89 C222,80.2406667 225.539333,83.7806667 229.89,83.7806667 C231.363333,83.7806667 232.740667,83.3746667 233.922667,82.67 L239.252667,88 L241.851333,85.4 Z"></path>
            </g>
        </g>
    </g>
</svg>